Armada-Black.ufo
<glyph name="exclam" format="1">
  <advance width="400"/>
  <unicode hex="0021"/>
  <outline>
    <contour>
      <point x="374" y="234" type="line"/>
      <point x="27" y="234" type="line"/>
      <point x="27" y="720" type="line"/>
      <point x="374" y="720" type="line"/>
    </contour>
    <contour>
      <point x="374" y="0" type="line"/>
      <point x="27" y="0" type="line"/>
      <point x="27" y="209" type="line"/>
      <point x="374" y="209" type="line"/>
    </contour>
  </outline>
</glyph>
<glyph name="quotedbl" format="1">
  <advance width="758"/>
  <unicode hex="0022"/>
  <outline>
    <contour>
      <point x="732" y="381" type="line"/>
      <point x="404" y="381" type="line"/>
      <point x="404" y="720" type="line"/>
      <point x="732" y="720" type="line"/>
    </contour>
    <contour>
      <point x="354" y="381" type="line"/>
      <point x="27" y="381" type="line"/>
      <point x="27" y="720" type="line"/>
      <point x="354" y="720" type="line"/>
    </contour>
  </outline>
</glyph>
<glyph name="numbersign" format="1">
  <advance width="806"/>
  <unicode hex="0023"/>
  <outline>
    <contour>
      <point x="784" y="124" type="line"/>
      <point x="734" y="124" type="line"/>
      <point x="734" y="0" type="line"/>
      <point x="429" y="0" type="line"/>
      <point x="429" y="124" type="line"/>
      <point x="372" y="124" type="line"/>
      <point x="372" y="0" type="line"/>
      <point x="67" y="0" type="line"/>
      <point x="67" y="124" type="line"/>
      <point x="17" y="124" type="line"/>
      <point x="17" y="315" type="line"/>
      <point x="67" y="315" type="line"/>
      <point x="67" y="406" type="line"/>
      <point x="17" y="406" type="line"/>
      <point x="17" y="597" type="line"/>
      <point x="67" y="597" type="line"/>
      <point x="67" y="720" type="line"/>
      <point x="372" y="720" type="line"/>
      <point x="372" y="597" type="line"/>
      <point x="429" y="597" type="line"/>
      <point x="429" y="720" type="line"/>
      <point x="734" y="720" type="line"/>
      <point x="734" y="597" type="line"/>
      <point x="784" y="597" type="line"/>
      <point x="784" y="406" type="line"/>
      <point x="734" y="406" type="line"/>
      <point x="734" y="315" type="line"/>
      <point x="784" y="315" type="line"/>
    </contour>
    <contour>
      <point x="435" y="300" type="line"/>
      <point x="435" y="421" type="line"/>
      <point x="366" y="421" type="line"/>
      <point x="366" y="300" type="line"/>
    </contour>
  </outline>
</glyph>
<glyph name="dollar" format="1">
  <advance width="784"/>
  <unicode hex="0024"/>
  <outline>
    <contour>
      <point x="758" y="49" type="line"/>
      <point x="700" y="26"/>
      <point x="637" y="10"/>
      <point x="568" y="0" type="curve"/>
      <point x="568" y="-100" type="line"/>
      <point x="221" y="-100" type="line"/>
      <point x="221" y="-1" type="line"/>
      <point x="149" y="9"/>
      <point x="84" y="25"/>
      <point x="25" y="49" type="curve"/>
      <point x="25" y="239" type="line"/>
      <point x="358" y="239" type="line"/>
      <point x="358" y="173" type="line"/>
      <point x="371" y="171"/>
      <point x="380" y="170"/>
      <point x="392" y="170" type="curve" smooth="yes"/>
      <point x="404" y="170"/>
      <point x="413" y="171"/>
      <point x="426" y="173" type="curve"/>
      <point x="426" y="264" type="line"/>
      <point x="25" y="264" type="line"/>
      <point x="25" y="672" type="line"/>
      <point x="83" y="694"/>
      <point x="146" y="711"/>
      <point x="215" y="720" type="curve"/>
      <point x="215" y="807" type="line"/>
      <point x="562" y="807" type="line"/>
      <point x="562" y="721" type="line"/>
      <point x="634" y="711"/>
      <point x="698" y="695"/>
      <point x="758" y="672" type="curve"/>
      <point x="758" y="481" type="line"/>
      <point x="426" y="481" type="line"/>
      <point x="426" y="547" type="line"/>
      <point x="413" y="550"/>
      <point x="404" y="550"/>
      <point x="392" y="550" type="curve" smooth="yes"/>
      <point x="380" y="550"/>
      <point x="372" y="550"/>
      <point x="358" y="547" type="curve"/>
      <point x="358" y="456" type="line"/>
      <point x="758" y="456" type="line"/>
    </contour>
  </outline>
</glyph>
<glyph name="ampersand" format="1">
  <advance width="867"/>
  <unicode hex="0026"/>
  <outline>
    <contour>
      <point x="867" y="259" type="line"/>
      <point x="814" y="259" type="line"/>
      <point x="814" y="52" type="line"/>
      <point x="709" y="15"/>
      <point x="562" y="-5"/>
      <point x="421" y="-5" type="curve" smooth="yes"/>
      <point x="280" y="-5"/>
      <point x="129" y="16"/>
      <point x="25" y="54" type="curve"/>
      <point x="25" y="334" type="line"/>
      <point x="62" y="349"/>
      <point x="115" y="358"/>
      <point x="180" y="367" type="curve"/>
      <point x="114" y="375"/>
      <point x="63" y="385"/>
      <point x="27" y="399" type="curve"/>
      <point x="27" y="676" type="line"/>
      <point x="132" y="715"/>
      <point x="287" y="735"/>
      <point x="421" y="735" type="curve" smooth="yes"/>
      <point x="562" y="735"/>
      <point x="709" y="715"/>
      <point x="814" y="674" type="curve"/>
      <point x="814" y="471" type="line"/>
      <point x="454" y="471" type="line"/>
      <point x="454" y="550" type="line"/>
      <point x="441" y="552"/>
      <point x="432" y="553"/>
      <point x="419" y="553" type="curve" smooth="yes"/>
      <point x="407" y="553"/>
      <point x="398" y="552"/>
      <point x="385" y="548" type="curve"/>
      <point x="385" y="447" type="line"/>
      <point x="398" y="443"/>
      <point x="409" y="442"/>
      <point x="422" y="442" type="curve" smooth="yes"/>
      <point x="867" y="442" type="line"/>
    </contour>
    <contour>
      <point x="455" y="155" type="line"/>
      <point x="455" y="284" type="line"/>
      <point x="420" y="284" type="line" smooth="yes"/>
      <point x="406" y="284"/>
      <point x="398" y="283"/>
      <point x="385" y="279" type="curve"/>
      <point x="385" y="160" type="line"/>
      <point x="396" y="156"/>
      <point x="406" y="155"/>
      <point x="420" y="155" type="curve" smooth="yes"/>
    </contour>
  </outline>
</glyph>
<glyph name="parenleft" format="1">
  <advance width="486"/>
  <unicode hex="0028"/>
  <outline>
    <contour>
      <point x="459" y="-5" type="line"/>
      <point x="261" y="-5"/>
      <point x="139" y="16"/>
      <point x="25" y="65" type="curve"/>
      <point x="25" y="656" type="line"/>
      <point x="138" y="703"/>
      <point x="260" y="725"/>
      <point x="459" y="725" type="curve"/>
      <point x="459" y="500" type="line"/>
      <point x="423" y="500"/>
      <point x="388" y="499"/>
      <point x="364" y="495" type="curve"/>
      <point x="364" y="225" type="line"/>
      <point x="389" y="222"/>
      <point x="423" y="220"/>
      <point x="459" y="220" type="curve"/>
    </contour>
  </outline>
</glyph>
<glyph name="parenright" format="1">
  <advance width="486"/>
  <unicode hex="0029"/>
  <outline>
    <contour>
      <point x="460" y="64" type="line"/>
      <point x="348" y="17"/>
      <point x="226" y="-5"/>
      <point x="27" y="-5" type="curve"/>
      <point x="27" y="220" type="line"/>
      <point x="63" y="220"/>
      <point x="97" y="221"/>
      <point x="121" y="225" type="curve"/>
      <point x="121" y="495" type="line"/>
      <point x="97" y="498"/>
      <point x="63" y="500"/>
      <point x="27" y="500" type="curve"/>
      <point x="27" y="725" type="line"/>
      <point x="225" y="725"/>
      <point x="346" y="704"/>
      <point x="460" y="655" type="curve"/>
    </contour>
  </outline>
</glyph>
<glyph name="asterisk" format="1">
  <advance width="1025"/>
  <unicode hex="002A"/>
  <outline>
    <contour>
      <point x="1005" y="190" type="line"/>
      <point x="702" y="190" type="line"/>
      <point x="702" y="327" type="line"/>
      <point x="692" y="332"/>
      <point x="678" y="336"/>
      <point x="661" y="338" type="curve"/>
      <point x="661" y="120" type="line"/>
      <point x="364" y="120" type="line"/>
      <point x="364" y="339" type="line"/>
      <point x="347" y="336"/>
      <point x="333" y="332"/>
      <point x="321" y="327" type="curve"/>
      <point x="321" y="190" type="line"/>
      <point x="19" y="190" type="line"/>
      <point x="19" y="390" type="line"/>
      <point x="56" y="404"/>
      <point x="109" y="414"/>
      <point x="175" y="423" type="curve"/>
      <point x="110" y="432"/>
      <point x="56" y="440"/>
      <point x="19" y="455" type="curve"/>
      <point x="19" y="655" type="line"/>
      <point x="321" y="655" type="line"/>
      <point x="321" y="518" type="line"/>
      <point x="333" y="513"/>
      <point x="347" y="510"/>
      <point x="364" y="507" type="curve"/>
      <point x="364" y="725" type="line"/>
      <point x="661" y="725" type="line"/>
      <point x="661" y="507" type="line"/>
      <point x="678" y="509"/>
      <point x="692" y="513"/>
      <point x="702" y="518" type="curve"/>
      <point x="702" y="655" type="line"/>
      <point x="1005" y="655" type="line"/>
      <point x="1005" y="456" type="line"/>
      <point x="968" y="441"/>
      <point x="915" y="432"/>
      <point x="850" y="423" type="curve"/>
      <point x="915" y="415"/>
      <point x="968" y="406"/>
      <point x="1005" y="391" type="curve"/>
    </contour>
  </outline>
</glyph>
<glyph name="plus" format="1">
  <advance width="582"/>
  <unicode hex="002B"/>
  <outline>
    <contour>
      <point x="567" y="261" type="line"/>
      <point x="432" y="261" type="line"/>
      <point x="432" y="127" type="line"/>
      <point x="149" y="127" type="line"/>
      <point x="149" y="261" type="line"/>
      <point x="16" y="261" type="line"/>
      <point x="16" y="478" type="line"/>
      <point x="149" y="478" type="line"/>
      <point x="149" y="612" type="line"/>
      <point x="432" y="612" type="line"/>
      <point x="432" y="478" type="line"/>
      <point x="567" y="478" type="line"/>
    </contour>
  </outline>
</glyph>
<glyph name="comma" format="1">
  <advance width="354"/>
  <unicode hex="002C"/>
  <outline>
    <contour>
      <point x="351" y="247" type="line"/>
      <point x="314" y="-92" type="line"/>
      <point x="-7" y="-92" type="line"/>
      <point x="29" y="247" type="line"/>
    </contour>
  </outline>
</glyph>
<glyph name="hyphen" format="1">
  <advance width="372"/>
  <unicode hex="002D"/>
  <unicode hex="2010"/>
  <unicode hex="2011"/>
  <outline>
    <contour>
      <point x="363" y="184" type="line"/>
      <point x="10" y="184" type="line"/>
      <point x="10" y="417" type="line"/>
      <point x="363" y="417" type="line"/>
    </contour>
  </outline>
</glyph>
<glyph name="period" format="1">
  <advance width="354"/>
  <unicode hex="002E"/>
  <outline>
    <contour>
      <point x="337" y="0" type="line"/>
      <point x="17" y="0" type="line"/>
      <point x="17" y="247" type="line"/>
      <point x="337" y="247" type="line"/>
    </contour>
  </outline>
</glyph>
<glyph name="slash" format="1">
  <advance width="566"/>
  <unicode hex="002F"/>
  <outline>
    <contour>
      <point x="551" y="720" type="line"/>
      <point x="380" y="0" type="line"/>
      <point x="13" y="0" type="line"/>
      <point x="185" y="720" type="line"/>
    </contour>
  </outline>
</glyph>
<glyph name="zero" format="1">
  <advance width="819"/>
  <unicode hex="0030"/>
  <outline>
    <contour>
      <point x="792" y="42" type="line"/>
      <point x="689" y="5"/>
      <point x="552" y="-15"/>
      <point x="409" y="-15" type="curve" smooth="yes"/>
      <point x="268" y="-15"/>
      <point x="131" y="5"/>
      <point x="25" y="42" type="curve"/>
      <point x="25" y="678" type="line"/>
      <point x="129" y="715"/>
      <point x="267" y="735"/>
      <point x="409" y="735" type="curve" smooth="yes"/>
      <point x="550" y="735"/>
      <point x="688" y="716"/>
      <point x="792" y="678" type="curve"/>
    </contour>
    <contour>
      <point x="439" y="192" type="curve"/>
      <point x="439" y="528" type="line"/>
      <point x="426" y="530"/>
      <point x="418" y="530"/>
      <point x="409" y="530" type="curve" smooth="yes"/>
      <point x="400" y="530"/>
      <point x="391" y="530"/>
      <point x="377" y="528" type="curve"/>
      <point x="377" y="192" type="line"/>
      <point x="391" y="190"/>
      <point x="400" y="190"/>
      <point x="409" y="190" type="curve" smooth="yes"/>
      <point x="418" y="190"/>
      <point x="426" y="190"/>
    </contour>
  </outline>
</glyph>
<glyph name="one" format="1">
  <advance width="532"/>
  <unicode hex="0031"/>
  <outline>
    <contour>
      <point x="516" y="0" type="line"/>
      <point x="18" y="0" type="line"/>
      <point x="18" y="225" type="line"/>
      <point x="91" y="225" type="line"/>
      <point x="91" y="495" type="line"/>
      <point x="21" y="495" type="line"/>
      <point x="21" y="720" type="line"/>
      <point x="444" y="720" type="line"/>
      <point x="444" y="225" type="line"/>
      <point x="516" y="225" type="line"/>
    </contour>
  </outline>
</glyph>
<glyph name="two" format="1">
  <advance width="773"/>
  <unicode hex="0032"/>
  <outline>
    <contour>
      <point x="758" y="0" type="line"/>
      <point x="11" y="0" type="line"/>
      <point x="11" y="342" type="line"/>
      <point x="411" y="471" type="line"/>
      <point x="411" y="535" type="line"/>
      <point x="399" y="537"/>
      <point x="392" y="538"/>
      <point x="380" y="538" type="curve" smooth="yes"/>
      <point x="366" y="538"/>
      <point x="356" y="537"/>
      <point x="344" y="535" type="curve"/>
      <point x="344" y="459" type="line"/>
      <point x="13" y="459" type="line"/>
      <point x="13" y="674" type="line"/>
      <point x="119" y="715"/>
      <point x="243" y="735"/>
      <point x="384" y="735" type="curve" smooth="yes"/>
      <point x="528" y="735"/>
      <point x="652" y="714"/>
      <point x="756" y="674" type="curve"/>
      <point x="756" y="320" type="line"/>
      <point x="417" y="230" type="line"/>
      <point x="417" y="225" type="line"/>
      <point x="758" y="225" type="line"/>
    </contour>
  </outline>
</glyph>
<glyph name="three" format="1">
  <advance width="801"/>
  <unicode hex="0033"/>
  <outline>
    <contour>
      <point x="775" y="46" type="line"/>
      <point x="670" y="6"/>
      <point x="538" y="-15"/>
      <point x="395" y="-15" type="curve" smooth="yes"/>
      <point x="252" y="-15"/>
      <point x="123" y="6"/>
      <point x="19" y="46" type="curve"/>
      <point x="19" y="239" type="line"/>
      <point x="364" y="239" type="line"/>
      <point x="364" y="180" type="line"/>
      <point x="376" y="178"/>
      <point x="384" y="177"/>
      <point x="398" y="177" type="curve" smooth="yes"/>
      <point x="410" y="177"/>
      <point x="418" y="178"/>
      <point x="431" y="180" type="curve"/>
      <point x="431" y="258" type="line"/>
      <point x="419" y="262"/>
      <point x="408" y="264"/>
      <point x="393" y="264" type="curve" smooth="yes"/>
      <point x="94" y="264" type="line"/>
      <point x="94" y="456" type="line"/>
      <point x="393" y="456" type="line" smooth="yes"/>
      <point x="407" y="456"/>
      <point x="418" y="458"/>
      <point x="431" y="462" type="curve"/>
      <point x="431" y="542" type="line"/>
      <point x="418" y="545"/>
      <point x="410" y="545"/>
      <point x="398" y="545" type="curve" smooth="yes"/>
      <point x="384" y="545"/>
      <point x="376" y="545"/>
      <point x="364" y="542" type="curve"/>
      <point x="364" y="481" type="line"/>
      <point x="19" y="481" type="line"/>
      <point x="19" y="674" type="line"/>
      <point x="124" y="715"/>
      <point x="254" y="735"/>
      <point x="395" y="735" type="curve" smooth="yes"/>
      <point x="539" y="735"/>
      <point x="671" y="714"/>
      <point x="775" y="674" type="curve"/>
      <point x="775" y="399" type="line"/>
      <point x="739" y="385"/>
      <point x="687" y="375"/>
      <point x="620" y="367" type="curve"/>
      <point x="685" y="358"/>
      <point x="739" y="349"/>
      <point x="775" y="334" type="curve"/>
    </contour>
  </outline>
</glyph>
<glyph name="four" format="1">
  <advance width="812"/>
  <unicode hex="0034"/>
  <outline>
    <contour>
      <point x="785" y="0" type="line"/>
      <point x="432" y="0" type="line"/>
      <point x="432" y="193" type="line"/>
      <point x="18" y="193" type="line"/>
      <point x="18" y="720" type="line"/>
      <point x="371" y="720" type="line"/>
      <point x="371" y="402" type="line"/>
      <point x="432" y="402" type="line"/>
      <point x="432" y="720" type="line"/>
      <point x="785" y="720" type="line"/>
    </contour>
  </outline>
</glyph>
<glyph name="five" format="1">
  <advance width="795"/>
  <unicode hex="0035"/>
  <outline>
    <contour>
      <point x="769" y="46" type="line"/>
      <point x="664" y="6"/>
      <point x="538" y="-15"/>
      <point x="396" y="-15" type="curve" smooth="yes"/>
      <point x="253" y="-15"/>
      <point x="129" y="6"/>
      <point x="25" y="46" type="curve"/>
      <point x="25" y="239" type="line"/>
      <point x="362" y="239" type="line"/>
      <point x="362" y="178" type="line"/>
      <point x="374" y="176"/>
      <point x="383" y="175"/>
      <point x="396" y="175" type="curve" smooth="yes"/>
      <point x="409" y="175"/>
      <point x="417" y="176"/>
      <point x="429" y="178" type="curve"/>
      <point x="429" y="258" type="line"/>
      <point x="418" y="262"/>
      <point x="409" y="264"/>
      <point x="393" y="264" type="curve" smooth="yes"/>
      <point x="25" y="264" type="line"/>
      <point x="25" y="720" type="line"/>
      <point x="767" y="720" type="line"/>
      <point x="767" y="507" type="line"/>
      <point x="325" y="507" type="line"/>
      <point x="325" y="483" type="line"/>
      <point x="328" y="483"/>
      <point x="391" y="483"/>
      <point x="399" y="483" type="curve" smooth="yes"/>
      <point x="547" y="483"/>
      <point x="679" y="472"/>
      <point x="769" y="453" type="curve"/>
    </contour>
  </outline>
</glyph>
<glyph name="six" format="1">
  <advance width="806"/>
  <unicode hex="0036"/>
  <outline>
    <contour>
      <point x="781" y="42" type="line"/>
      <point x="678" y="5"/>
      <point x="547" y="-15"/>
      <point x="403" y="-15" type="curve" smooth="yes"/>
      <point x="262" y="-15"/>
      <point x="131" y="5"/>
      <point x="25" y="42" type="curve"/>
      <point x="25" y="674" type="line"/>
      <point x="130" y="714"/>
      <point x="261" y="735"/>
      <point x="403" y="735" type="curve" smooth="yes"/>
      <point x="547" y="735"/>
      <point x="675" y="714"/>
      <point x="780" y="674" type="curve"/>
      <point x="780" y="481" type="line"/>
      <point x="435" y="481" type="line"/>
      <point x="435" y="540" type="line"/>
      <point x="422" y="542"/>
      <point x="414" y="543"/>
      <point x="401" y="543" type="curve" smooth="yes"/>
      <point x="389" y="543"/>
      <point x="381" y="542"/>
      <point x="368" y="540" type="curve"/>
      <point x="368" y="453" type="line"/>
      <point x="389" y="455"/>
      <point x="426" y="456"/>
      <point x="464" y="456" type="curve" smooth="yes"/>
      <point x="569" y="456"/>
      <point x="682" y="449"/>
      <point x="781" y="425" type="curve"/>
    </contour>
    <contour>
      <point x="438" y="160" type="curve"/>
      <point x="438" y="292" type="line"/>
      <point x="423" y="294"/>
      <point x="413" y="295"/>
      <point x="403" y="295" type="curve" smooth="yes"/>
      <point x="393" y="295"/>
      <point x="383" y="294"/>
      <point x="367" y="292" type="curve"/>
      <point x="367" y="160" type="line"/>
      <point x="383" y="158"/>
      <point x="393" y="157"/>
      <point x="403" y="157" type="curve" smooth="yes"/>
      <point x="413" y="157"/>
      <point x="423" y="158"/>
    </contour>
  </outline>
</glyph>
<glyph name="seven" format="1">
  <advance width="716"/>
  <unicode hex="0037"/>
  <outline>
    <contour>
      <point x="702" y="504" type="line"/>
      <point x="466" y="0" type="line"/>
      <point x="92" y="0" type="line"/>
      <point x="320" y="488" type="line"/>
      <point x="12" y="488" type="line"/>
      <point x="12" y="720" type="line"/>
      <point x="702" y="720" type="line"/>
    </contour>
  </outline>
</glyph>
<glyph name="eight" format="1">
  <advance width="818"/>
  <unicode hex="0038"/>
  <outline>
    <contour>
      <point x="792" y="42" type="line"/>
      <point x="689" y="5"/>
      <point x="552" y="-15"/>
      <point x="409" y="-15" type="curve" smooth="yes"/>
      <point x="265" y="-15"/>
      <point x="129" y="5"/>
      <point x="25" y="42" type="curve"/>
      <point x="25" y="334" type="line"/>
      <point x="62" y="350"/>
      <point x="115" y="359"/>
      <point x="180" y="367" type="curve"/>
      <point x="113" y="375"/>
      <point x="63" y="385"/>
      <point x="27" y="399" type="curve"/>
      <point x="27" y="678" type="line"/>
      <point x="131" y="716"/>
      <point x="267" y="735"/>
      <point x="409" y="735" type="curve" smooth="yes"/>
      <point x="551" y="735"/>
      <point x="687" y="716"/>
      <point x="791" y="678" type="curve"/>
      <point x="791" y="399" type="line"/>
      <point x="754" y="385"/>
      <point x="703" y="375"/>
      <point x="637" y="367" type="curve"/>
      <point x="702" y="359"/>
      <point x="756" y="350"/>
      <point x="792" y="334" type="curve"/>
    </contour>
    <contour>
      <point x="444" y="433" type="curve"/>
      <point x="444" y="563" type="line"/>
      <point x="430" y="565"/>
      <point x="418" y="566"/>
      <point x="409" y="566" type="curve" smooth="yes"/>
      <point x="399" y="566"/>
      <point x="386" y="565"/>
      <point x="374" y="563" type="curve"/>
      <point x="374" y="433" type="line"/>
      <point x="386" y="432"/>
      <point x="399" y="431"/>
      <point x="409" y="431" type="curve" smooth="yes"/>
      <point x="418" y="431"/>
      <point x="430" y="432"/>
    </contour>
    <contour>
      <point x="444" y="152" type="curve"/>
      <point x="444" y="282" type="line"/>
      <point x="430" y="284"/>
      <point x="418" y="284"/>
      <point x="409" y="284" type="curve" smooth="yes"/>
      <point x="399" y="284"/>
      <point x="386" y="284"/>
      <point x="374" y="282" type="curve"/>
      <point x="374" y="152" type="line"/>
      <point x="386" y="150"/>
      <point x="399" y="149"/>
      <point x="409" y="149" type="curve" smooth="yes"/>
      <point x="418" y="149"/>
      <point x="430" y="150"/>
    </contour>
  </outline>
</glyph>
<glyph name="nine" format="1">
  <advance width="806"/>
  <unicode hex="0039"/>
  <outline>
    <contour>
      <point x="781" y="46" type="line"/>
      <point x="675" y="6"/>
      <point x="544" y="-15"/>
      <point x="403" y="-15" type="curve" smooth="yes"/>
      <point x="260" y="-15"/>
      <point x="130" y="6"/>
      <point x="27" y="46" type="curve"/>
      <point x="27" y="239" type="line"/>
      <point x="371" y="239" type="line"/>
      <point x="371" y="180" type="line"/>
      <point x="383" y="178"/>
      <point x="392" y="177"/>
      <point x="404" y="177" type="curve" smooth="yes"/>
      <point x="417" y="177"/>
      <point x="424" y="178"/>
      <point x="438" y="180" type="curve"/>
      <point x="438" y="267" type="line"/>
      <point x="417" y="265"/>
      <point x="380" y="264"/>
      <point x="342" y="264" type="curve" smooth="yes"/>
      <point x="236" y="264"/>
      <point x="123" y="271"/>
      <point x="25" y="295" type="curve"/>
      <point x="25" y="678" type="line"/>
      <point x="129" y="715"/>
      <point x="260" y="735"/>
      <point x="403" y="735" type="curve" smooth="yes"/>
      <point x="544" y="735"/>
      <point x="675" y="715"/>
      <point x="781" y="678" type="curve"/>
    </contour>
    <contour>
      <point x="438" y="428" type="curve"/>
      <point x="438" y="560" type="line"/>
      <point x="423" y="562"/>
      <point x="413" y="563"/>
      <point x="403" y="563" type="curve" smooth="yes"/>
      <point x="393" y="563"/>
      <point x="383" y="562"/>
      <point x="367" y="560" type="curve"/>
      <point x="367" y="428" type="line"/>
      <point x="383" y="426"/>
      <point x="393" y="425"/>
      <point x="403" y="425" type="curve" smooth="yes"/>
      <point x="413" y="425"/>
      <point x="423" y="426"/>
    </contour>
  </outline>
</glyph>
<glyph name="colon" format="1">
  <advance width="365"/>
  <unicode hex="003A"/>
  <outline>
    <contour>
      <point x="343" y="254" type="line"/>
      <point x="22" y="254" type="line"/>
      <point x="22" y="480" type="line"/>
      <point x="343" y="480" type="line"/>
    </contour>
    <contour>
      <point x="343" y="0" type="line"/>
      <point x="22" y="0" type="line"/>
      <point x="22" y="224" type="line"/>
      <point x="343" y="224" type="line"/>
    </contour>
  </outline>
</glyph>
<glyph name="semicolon" format="1">
  <advance width="365"/>
  <unicode hex="003B"/>
  <outline>
    <contour>
      <point x="343" y="254" type="line"/>
      <point x="22" y="254" type="line"/>
      <point x="22" y="480" type="line"/>
      <point x="343" y="480" type="line"/>
    </contour>
    <contour>
      <point x="346" y="224" type="line"/>
      <point x="314" y="-92" type="line"/>
      <point x="-7" y="-92" type="line"/>
      <point x="25" y="224" type="line"/>
    </contour>
  </outline>
</glyph>
<glyph name="less" format="1">
  <advance width="487"/>
  <unicode hex="003C"/>
  <outline>
    <contour>
      <point x="461" y="-15" type="line"/>
      <point x="16" y="220" type="line"/>
      <point x="16" y="500" type="line"/>
      <point x="461" y="735" type="line"/>
      <point x="461" y="448" type="line"/>
      <point x="276" y="360" type="line"/>
      <point x="461" y="273" type="line"/>
    </contour>
  </outline>
</glyph>
<glyph name="equal" format="1">
  <advance width="554"/>
  <unicode hex="003D"/>
  <outline>
    <contour>
      <point x="532" y="388" type="line"/>
      <point x="22" y="388" type="line"/>
      <point x="22" y="619" type="line"/>
      <point x="532" y="619" type="line"/>
    </contour>
    <contour>
      <point x="532" y="122" type="line"/>
      <point x="22" y="122" type="line"/>
      <point x="22" y="351" type="line"/>
      <point x="532" y="351" type="line"/>
    </contour>
  </outline>
</glyph>
<glyph name="greater" format="1">
  <advance width="487"/>
  <unicode hex="003E"/>
  <outline>
    <contour>
      <point x="472" y="220" type="line"/>
      <point x="25" y="-15" type="line"/>
      <point x="25" y="273" type="line"/>
      <point x="212" y="360" type="line"/>
      <point x="25" y="448" type="line"/>
      <point x="25" y="735" type="line"/>
      <point x="472" y="500" type="line"/>
    </contour>
  </outline>
</glyph>
<glyph name="question" format="1">
  <advance width="774"/>
  <unicode hex="003F"/>
  <outline>
    <contour>
      <point x="757" y="337" type="line"/>
      <point x="563" y="272" type="line"/>
      <point x="563" y="234" type="line"/>
      <point x="216" y="234" type="line"/>
      <point x="216" y="407" type="line"/>
      <point x="413" y="473" type="line"/>
      <point x="413" y="535" type="line"/>
      <point x="400" y="537"/>
      <point x="393" y="538"/>
      <point x="381" y="538" type="curve" smooth="yes"/>
      <point x="368" y="538"/>
      <point x="358" y="537"/>
      <point x="346" y="535" type="curve"/>
      <point x="346" y="459" type="line"/>
      <point x="16" y="459" type="line"/>
      <point x="16" y="674" type="line"/>
      <point x="121" y="715"/>
      <point x="245" y="735"/>
      <point x="386" y="735" type="curve" smooth="yes"/>
      <point x="529" y="735"/>
      <point x="653" y="714"/>
      <point x="757" y="674" type="curve"/>
    </contour>
    <contour>
      <point x="563" y="0" type="line"/>
      <point x="216" y="0" type="line"/>
      <point x="216" y="209" type="line"/>
      <point x="563" y="209" type="line"/>
    </contour>
  </outline>
</glyph>
<glyph name="at" format="1">
  <advance width="965"/>
  <unicode hex="0040"/>
  <outline>
    <contour>
      <point x="937" y="50" type="line"/>
      <point x="823" y="6"/>
      <point x="653" y="-15"/>
      <point x="483" y="-15" type="curve" smooth="yes"/>
      <point x="311" y="-15"/>
      <point x="139" y="6"/>
      <point x="25" y="50" type="curve"/>
      <point x="25" y="670" type="line"/>
      <point x="139" y="714"/>
      <point x="311" y="735"/>
      <point x="483" y="735" type="curve" smooth="yes"/>
      <point x="653" y="735"/>
      <point x="823" y="714"/>
      <point x="937" y="670" type="curve"/>
      <point x="937" y="286" type="line"/>
      <point x="669" y="286" type="line"/>
      <point x="669" y="192" type="line"/>
      <point x="607" y="177"/>
      <point x="539" y="175"/>
      <point x="482" y="175" type="curve" smooth="yes"/>
      <point x="413" y="175"/>
      <point x="358" y="179"/>
      <point x="296" y="192" type="curve"/>
      <point x="296" y="529" type="line"/>
      <point x="355" y="541"/>
      <point x="411" y="545"/>
      <point x="482" y="545" type="curve" smooth="yes"/>
      <point x="551" y="545"/>
      <point x="606" y="541"/>
      <point x="669" y="529" type="curve"/>
      <point x="669" y="439" type="line"/>
      <point x="701" y="439" type="line"/>
      <point x="701" y="552" type="line"/>
      <point x="640" y="567"/>
      <point x="569" y="573"/>
      <point x="482" y="573" type="curve" smooth="yes"/>
      <point x="396" y="573"/>
      <point x="326" y="567"/>
      <point x="263" y="552" type="curve"/>
      <point x="263" y="168" type="line"/>
      <point x="326" y="153"/>
      <point x="396" y="147"/>
      <point x="482" y="147" type="curve" smooth="yes"/>
      <point x="569" y="147"/>
      <point x="640" y="153"/>
      <point x="701" y="168" type="curve"/>
      <point x="701" y="259" type="line"/>
      <point x="937" y="259" type="line"/>
    </contour>
    <contour>
      <point x="497" y="302" type="curve"/>
      <point x="497" y="421" type="line"/>
      <point x="492" y="422"/>
      <point x="487" y="422"/>
      <point x="482" y="422" type="curve" smooth="yes"/>
      <point x="476" y="422"/>
      <point x="470" y="422"/>
      <point x="466" y="421" type="curve"/>
      <point x="466" y="302" type="line"/>
      <point x="470" y="301"/>
      <point x="476" y="301"/>
      <point x="482" y="301" type="curve" smooth="yes"/>
      <point x="487" y="301"/>
      <point x="492" y="301"/>
    </contour>
  </outline>
</glyph>
<glyph name="A" format="1">
  <advance width="842"/>
  <unicode hex="0041"/>
  <outline>
    <contour>
      <point x="816" y="0" type="line"/>
      <point x="456" y="0" type="line"/>
      <point x="456" y="187" type="line"/>
      <point x="386" y="187" type="line"/>
      <point x="386" y="0" type="line"/>
      <point x="27" y="0" type="line"/>
      <point x="27" y="674" type="line"/>
      <point x="130" y="714"/>
      <point x="280" y="735"/>
      <point x="422" y="735" type="curve" smooth="yes"/>
      <point x="563" y="735"/>
      <point x="710" y="715"/>
      <point x="816" y="674" type="curve"/>
    </contour>
    <contour>
      <point x="456" y="377" type="line"/>
      <point x="456" y="542" type="line"/>
      <point x="444" y="545"/>
      <point x="433" y="545"/>
      <point x="421" y="545" type="curve" smooth="yes"/>
      <point x="409" y="545"/>
      <point x="399" y="545"/>
      <point x="386" y="542" type="curve"/>
      <point x="386" y="377" type="line"/>
    </contour>
  </outline>
</glyph>
<glyph name="B" format="1">
  <advance width="840"/>
  <unicode hex="0042"/>
  <outline>
    <contour>
      <point x="816" y="59" type="line"/>
      <point x="716" y="22"/>
      <point x="567" y="0"/>
      <point x="420" y="0" type="curve" smooth="yes"/>
      <point x="27" y="0" type="line"/>
      <point x="27" y="720" type="line"/>
      <point x="420" y="720" type="line" smooth="yes"/>
      <point x="560" y="720"/>
      <point x="713" y="699"/>
      <point x="814" y="661" type="curve"/>
      <point x="814" y="399" type="line"/>
      <point x="778" y="385"/>
      <point x="727" y="375"/>
      <point x="661" y="367" type="curve"/>
      <point x="726" y="358"/>
      <point x="780" y="349"/>
      <point x="816" y="334" type="curve"/>
    </contour>
    <contour>
      <point x="456" y="436" type="curve"/>
      <point x="456" y="555" type="line"/>
      <point x="444" y="559"/>
      <point x="435" y="560"/>
      <point x="421" y="560" type="curve" smooth="yes"/>
      <point x="386" y="560" type="line"/>
      <point x="386" y="431" type="line"/>
      <point x="421" y="431" type="line" smooth="yes"/>
      <point x="435" y="431"/>
      <point x="445" y="432"/>
    </contour>
    <contour>
      <point x="456" y="160" type="curve"/>
      <point x="456" y="279" type="line"/>
      <point x="444" y="283"/>
      <point x="435" y="284"/>
      <point x="421" y="284" type="curve" smooth="yes"/>
      <point x="386" y="284" type="line"/>
      <point x="386" y="155" type="line"/>
      <point x="421" y="155" type="line" smooth="yes"/>
      <point x="435" y="155"/>
      <point x="445" y="156"/>
    </contour>
  </outline>
</glyph>
<glyph name="D" format="1">
  <advance width="841"/>
  <unicode hex="0044"/>
  <outline>
    <contour>
      <point x="816" y="74" type="line"/>
      <point x="710" y="25"/>
      <point x="560" y="0"/>
      <point x="420" y="0" type="curve" smooth="yes"/>
      <point x="27" y="0" type="line"/>
      <point x="27" y="720" type="line"/>
      <point x="420" y="720" type="line" smooth="yes"/>
      <point x="559" y="720"/>
      <point x="708" y="696"/>
      <point x="816" y="647" type="curve"/>
    </contour>
    <contour>
      <point x="455" y="203" type="curve"/>
      <point x="455" y="517" type="line"/>
      <point x="444" y="521"/>
      <point x="434" y="523"/>
      <point x="420" y="523" type="curve" smooth="yes"/>
      <point x="388" y="523" type="line"/>
      <point x="388" y="197" type="line"/>
      <point x="420" y="197" type="line" smooth="yes"/>
      <point x="434" y="197"/>
      <point x="444" y="199"/>
    </contour>
  </outline>
</glyph>
<glyph name="F" format="1">
  <advance width="830"/>
  <unicode hex="0046"/>
  <outline>
    <contour>
      <point x="814" y="454" type="line"/>
      <point x="454" y="454" type="line"/>
      <point x="454" y="527" type="line"/>
      <point x="441" y="530"/>
      <point x="432" y="530"/>
      <point x="420" y="530" type="curve" smooth="yes"/>
      <point x="408" y="530"/>
      <point x="400" y="530"/>
      <point x="386" y="527" type="curve"/>
      <point x="386" y="429" type="line"/>
      <point x="786" y="429" type="line"/>
      <point x="786" y="212" type="line"/>
      <point x="386" y="212" type="line"/>
      <point x="386" y="0" type="line"/>
      <point x="25" y="0" type="line"/>
      <point x="25" y="674" type="line"/>
      <point x="129" y="714"/>
      <point x="279" y="735"/>
      <point x="421" y="735" type="curve" smooth="yes"/>
      <point x="562" y="735"/>
      <point x="709" y="715"/>
      <point x="814" y="674" type="curve"/>
    </contour>
  </outline>
</glyph>
<glyph name="H" format="1">
  <advance width="842"/>
  <unicode hex="0048"/>
  <outline>
    <contour>
      <point x="816" y="0" type="line"/>
      <point x="452" y="0" type="line"/>
      <point x="452" y="263" type="line"/>
      <point x="391" y="263" type="line"/>
      <point x="391" y="0" type="line"/>
      <point x="27" y="0" type="line"/>
      <point x="27" y="720" type="line"/>
      <point x="391" y="720" type="line"/>
      <point x="391" y="473" type="line"/>
      <point x="452" y="473" type="line"/>
      <point x="452" y="720" type="line"/>
      <point x="816" y="720" type="line"/>
    </contour>
  </outline>
</glyph>
<glyph name="I" format="1">
  <advance width="417"/>
  <unicode hex="0049"/>
  <outline>
    <contour>
      <point x="391" y="0" type="line"/>
      <point x="27" y="0" type="line"/>
      <point x="27" y="720" type="line"/>
      <point x="391" y="720" type="line"/>
    </contour>
  </outline>
</glyph>
<glyph name="J" format="1">
  <advance width="559"/>
  <unicode hex="004A"/>
  <outline>
    <contour>
      <point x="532" y="70" type="line"/>
      <point x="432" y="25"/>
      <point x="283" y="0"/>
      <point x="136" y="0" type="curve" smooth="yes"/>
      <point x="18" y="0" type="line"/>
      <point x="18" y="235" type="line"/>
      <point x="124" y="235" type="line" smooth="yes"/>
      <point x="141" y="235"/>
      <point x="158" y="236"/>
      <point x="171" y="240" type="curve"/>
      <point x="171" y="720" type="line"/>
      <point x="532" y="720" type="line"/>
    </contour>
  </outline>
</glyph>
<glyph name="K" format="1">
  <advance width="841"/>
  <unicode hex="004B"/>
  <outline>
    <contour>
      <point x="816" y="0" type="line"/>
      <point x="452" y="0" type="line"/>
      <point x="452" y="259" type="line"/>
      <point x="441" y="262"/>
      <point x="431" y="264"/>
      <point x="417" y="264" type="curve" smooth="yes"/>
      <point x="391" y="264" type="line"/>
      <point x="391" y="0" type="line"/>
      <point x="27" y="0" type="line"/>
      <point x="27" y="720" type="line"/>
      <point x="391" y="720" type="line"/>
      <point x="391" y="469" type="line"/>
      <point x="417" y="469" type="line" smooth="yes"/>
      <point x="431" y="469"/>
      <point x="440" y="470"/>
      <point x="452" y="474" type="curve"/>
      <point x="452" y="720" type="line"/>
      <point x="814" y="720" type="line"/>
      <point x="814" y="399" type="line"/>
      <point x="778" y="385"/>
      <point x="727" y="375"/>
      <point x="661" y="367" type="curve"/>
      <point x="726" y="358"/>
      <point x="780" y="349"/>
      <point x="816" y="334" type="curve"/>
    </contour>
  </outline>
</glyph>
<glyph name="L" format="1">
  <advance width="632"/>
  <unicode hex="004C"/>
  <outline>
    <contour>
      <point x="613" y="0" type="line"/>
      <point x="27" y="0" type="line"/>
      <point x="27" y="720" type="line"/>
      <point x="391" y="720" type="line"/>
      <point x="391" y="235" type="line"/>
      <point x="613" y="235" type="line"/>
    </contour>
  </outline>
</glyph>
<glyph name="M" format="1">
  <advance width="1221"/>
  <unicode hex="004D"/>
  <outline>
    <contour>
      <point x="1194" y="0" type="line"/>
      <point x="847" y="0" type="line"/>
      <point x="847" y="528" type="line"/>
      <point x="833" y="530"/>
      <point x="813" y="532"/>
      <point x="785" y="533" type="curve"/>
      <point x="785" y="0" type="line"/>
      <point x="436" y="0" type="line"/>
      <point x="436" y="533" type="line"/>
      <point x="408" y="532"/>
      <point x="388" y="530"/>
      <point x="374" y="528" type="curve"/>
      <point x="374" y="0" type="line"/>
      <point x="27" y="0" type="line"/>
      <point x="27" y="677" type="line"/>
      <point x="186" y="719"/>
      <point x="384" y="737"/>
      <point x="610" y="737" type="curve" smooth="yes"/>
      <point x="837" y="737"/>
      <point x="1035" y="720"/>
      <point x="1194" y="677" type="curve"/>
    </contour>
  </outline>
</glyph>
<glyph name="N" format="1">
  <advance width="842"/>
  <unicode hex="004E"/>
  <outline>
    <contour>
      <point x="816" y="0" type="line"/>
      <point x="452" y="0" type="line"/>
      <point x="452" y="527" type="line"/>
      <point x="441" y="530"/>
      <point x="432" y="530"/>
      <point x="421" y="530" type="curve" smooth="yes"/>
      <point x="410" y="530"/>
      <point x="402" y="530"/>
      <point x="391" y="527" type="curve"/>
      <point x="391" y="0" type="line"/>
      <point x="27" y="0" type="line"/>
      <point x="27" y="674" type="line"/>
      <point x="130" y="714"/>
      <point x="280" y="735"/>
      <point x="422" y="735" type="curve" smooth="yes"/>
      <point x="563" y="735"/>
      <point x="710" y="715"/>
      <point x="816" y="674" type="curve"/>
    </contour>
  </outline>
</glyph>
<glyph name="O" format="1">
  <advance width="842"/>
  <unicode hex="004F"/>
  <outline>
    <contour>
      <point x="814" y="46" type="line"/>
      <point x="711" y="6"/>
      <point x="564" y="-14"/>
      <point x="421" y="-15" type="curve" smooth="yes"/>
      <point x="280" y="-15"/>
      <point x="130" y="6"/>
      <point x="25" y="46" type="curve"/>
      <point x="25" y="674" type="line"/>
      <point x="129" y="714"/>
      <point x="279" y="735"/>
      <point x="421" y="735" type="curve" smooth="yes"/>
      <point x="562" y="735"/>
      <point x="709" y="715"/>
      <point x="814" y="674" type="curve"/>
    </contour>
    <contour>
      <point x="454" y="193" type="curve"/>
      <point x="454" y="527" type="line"/>
      <point x="441" y="530"/>
      <point x="432" y="530"/>
      <point x="420" y="530" type="curve" smooth="yes"/>
      <point x="408" y="530"/>
      <point x="399" y="530"/>
      <point x="386" y="527" type="curve"/>
      <point x="386" y="193" type="line"/>
      <point x="399" y="191"/>
      <point x="408" y="190"/>
      <point x="420" y="190" type="curve" smooth="yes"/>
      <point x="432" y="190"/>
      <point x="441" y="191"/>
    </contour>
  </outline>
</glyph>
<glyph name="P" format="1">
  <advance width="828"/>
  <unicode hex="0050"/>
  <outline>
    <contour>
      <point x="816" y="261" type="line"/>
      <point x="717" y="217"/>
      <point x="568" y="191"/>
      <point x="420" y="191" type="curve" smooth="yes"/>
      <point x="391" y="191" type="line"/>
      <point x="391" y="0" type="line"/>
      <point x="27" y="0" type="line"/>
      <point x="27" y="720" type="line"/>
      <point x="420" y="720" type="line" smooth="yes"/>
      <point x="567" y="720"/>
      <point x="715" y="696"/>
      <point x="816" y="651" type="curve"/>
    </contour>
    <contour>
      <point x="456" y="379" type="curve"/>
      <point x="456" y="532" type="line"/>
      <point x="445" y="536"/>
      <point x="435" y="538"/>
      <point x="421" y="538" type="curve" smooth="yes"/>
      <point x="386" y="538" type="line"/>
      <point x="386" y="374" type="line"/>
      <point x="421" y="374" type="line" smooth="yes"/>
      <point x="435" y="374"/>
      <point x="445" y="375"/>
    </contour>
  </outline>
</glyph>
<glyph name="Q" format="1">
  <advance width="842"/>
  <unicode hex="0051"/>
  <outline>
    <contour>
      <point x="814" y="46" type="line"/>
      <point x="754" y="22"/>
      <point x="676" y="6"/>
      <point x="594" y="-3" type="curve"/>
      <point x="594" y="-100" type="line"/>
      <point x="246" y="-100" type="line"/>
      <point x="246" y="-3" type="line"/>
      <point x="164" y="6"/>
      <point x="86" y="22"/>
      <point x="25" y="46" type="curve"/>
      <point x="25" y="674" type="line"/>
      <point x="129" y="714"/>
      <point x="279" y="735"/>
      <point x="421" y="735" type="curve" smooth="yes"/>
      <point x="562" y="735"/>
      <point x="709" y="715"/>
      <point x="814" y="674" type="curve"/>
    </contour>
    <contour>
      <point x="454" y="190" type="curve"/>
      <point x="454" y="527" type="line"/>
      <point x="441" y="530"/>
      <point x="432" y="530"/>
      <point x="420" y="530" type="curve" smooth="yes"/>
      <point x="408" y="530"/>
      <point x="399" y="530"/>
      <point x="386" y="527" type="curve"/>
      <point x="386" y="190" type="line"/>
      <point x="399" y="188"/>
      <point x="408" y="187"/>
      <point x="420" y="187" type="curve" smooth="yes"/>
      <point x="432" y="187"/>
      <point x="441" y="188"/>
    </contour>
  </outline>
</glyph>
<glyph name="R" format="1">
  <advance width="841"/>
  <unicode hex="0052"/>
  <outline>
    <contour>
      <point x="816" y="0" type="line"/>
      <point x="452" y="0" type="line"/>
      <point x="452" y="231" type="line"/>
      <point x="438" y="236"/>
      <point x="431" y="237"/>
      <point x="417" y="237" type="curve" smooth="yes"/>
      <point x="391" y="237" type="line"/>
      <point x="391" y="0" type="line"/>
      <point x="27" y="0" type="line"/>
      <point x="27" y="720" type="line"/>
      <point x="420" y="720" type="line" smooth="yes"/>
      <point x="567" y="720"/>
      <point x="713" y="697"/>
      <point x="814" y="656" type="curve"/>
      <point x="814" y="369" type="line"/>
      <point x="778" y="355"/>
      <point x="727" y="346"/>
      <point x="661" y="337" type="curve"/>
      <point x="726" y="328"/>
      <point x="780" y="319"/>
      <point x="816" y="304" type="curve"/>
    </contour>
    <contour>
      <point x="456" y="412" type="curve"/>
      <point x="456" y="550" type="line"/>
      <point x="444" y="554"/>
      <point x="435" y="555"/>
      <point x="421" y="555" type="curve" smooth="yes"/>
      <point x="386" y="555" type="line"/>
      <point x="386" y="406" type="line"/>
      <point x="421" y="406" type="line" smooth="yes"/>
      <point x="435" y="406"/>
      <point x="446" y="408"/>
    </contour>
  </outline>
</glyph>
<glyph name="S" format="1">
  <advance width="840"/>
  <unicode hex="0053"/>
  <outline>
    <contour>
      <point x="814" y="46" type="line"/>
      <point x="710" y="6"/>
      <point x="560" y="-15"/>
      <point x="419" y="-15" type="curve" smooth="yes"/>
      <point x="276" y="-14"/>
      <point x="129" y="6"/>
      <point x="25" y="46" type="curve"/>
      <point x="25" y="239" type="line"/>
      <point x="386" y="239" type="line"/>
      <point x="386" y="178" type="line"/>
      <point x="399" y="176"/>
      <point x="408" y="175"/>
      <point x="420" y="175" type="curve" smooth="yes"/>
      <point x="432" y="175"/>
      <point x="441" y="176"/>
      <point x="454" y="178" type="curve"/>
      <point x="454" y="264" type="line"/>
      <point x="25" y="264" type="line"/>
      <point x="25" y="674" type="line"/>
      <point x="129" y="714"/>
      <point x="279" y="735"/>
      <point x="421" y="735" type="curve" smooth="yes"/>
      <point x="562" y="735"/>
      <point x="709" y="715"/>
      <point x="814" y="674" type="curve"/>
      <point x="814" y="481" type="line"/>
      <point x="454" y="481" type="line"/>
      <point x="454" y="542" type="line"/>
      <point x="441" y="545"/>
      <point x="432" y="545"/>
      <point x="420" y="545" type="curve" smooth="yes"/>
      <point x="408" y="545"/>
      <point x="400" y="545"/>
      <point x="386" y="542" type="curve"/>
      <point x="386" y="456" type="line"/>
      <point x="814" y="456" type="line"/>
    </contour>
  </outline>
</glyph>
<glyph name="T" format="1">
  <advance width="717"/>
  <unicode hex="0054"/>
  <outline>
    <contour>
      <point x="699" y="485" type="line"/>
      <point x="541" y="485" type="line"/>
      <point x="541" y="0" type="line"/>
      <point x="177" y="0" type="line"/>
      <point x="177" y="485" type="line"/>
      <point x="18" y="485" type="line"/>
      <point x="18" y="720" type="line"/>
      <point x="699" y="720" type="line"/>
    </contour>
  </outline>
</glyph>
<glyph name="U" format="1">
  <advance width="842"/>
  <unicode hex="0055"/>
  <outline>
    <contour>
      <point x="816" y="46" type="line"/>
      <point x="710" y="5"/>
      <point x="563" y="-15"/>
      <point x="422" y="-15" type="curve" smooth="yes"/>
      <point x="280" y="-15"/>
      <point x="130" y="6"/>
      <point x="27" y="46" type="curve"/>
      <point x="27" y="720" type="line"/>
      <point x="391" y="720" type="line"/>
      <point x="391" y="193" type="line"/>
      <point x="402" y="191"/>
      <point x="410" y="190"/>
      <point x="421" y="190" type="curve" smooth="yes"/>
      <point x="432" y="190"/>
      <point x="441" y="191"/>
      <point x="452" y="193" type="curve"/>
      <point x="452" y="720" type="line"/>
      <point x="816" y="720" type="line"/>
    </contour>
  </outline>
</glyph>
<glyph name="V" format="1">
  <advance width="825"/>
  <unicode hex="0056"/>
  <outline>
    <contour>
      <point x="814" y="424" type="line" smooth="yes"/>
      <point x="814" y="213"/>
      <point x="730" y="102"/>
      <point x="604" y="-5" type="curve"/>
      <point x="236" y="-5" type="line"/>
      <point x="111" y="102"/>
      <point x="25" y="211"/>
      <point x="25" y="424" type="curve" smooth="yes"/>
      <point x="25" y="720" type="line"/>
      <point x="389" y="720" type="line"/>
      <point x="389" y="425" type="line" smooth="yes"/>
      <point x="389" y="279"/>
      <point x="395" y="234"/>
      <point x="420" y="181" type="curve"/>
      <point x="444" y="233"/>
      <point x="450" y="276"/>
      <point x="450" y="425" type="curve" smooth="yes"/>
      <point x="450" y="720" type="line"/>
      <point x="814" y="720" type="line"/>
    </contour>
  </outline>
</glyph>
<glyph name="W" format="1">
  <advance width="1221"/>
  <unicode hex="0057"/>
  <outline>
    <contour>
      <point x="1194" y="44" type="line"/>
      <point x="1035" y="1"/>
      <point x="837" y="-17"/>
      <point x="610" y="-17" type="curve" smooth="yes"/>
      <point x="384" y="-17"/>
      <point x="186" y="1"/>
      <point x="27" y="44" type="curve"/>
      <point x="27" y="720" type="line"/>
      <point x="374" y="720" type="line"/>
      <point x="374" y="192" type="line"/>
      <point x="388" y="190"/>
      <point x="408" y="188"/>
      <point x="436" y="187" type="curve"/>
      <point x="436" y="720" type="line"/>
      <point x="785" y="720" type="line"/>
      <point x="785" y="187" type="line"/>
      <point x="813" y="189"/>
      <point x="833" y="190"/>
      <point x="847" y="192" type="curve"/>
      <point x="847" y="720" type="line"/>
      <point x="1194" y="720" type="line"/>
    </contour>
  </outline>
</glyph>
<glyph name="X" format="1">
  <advance width="840"/>
  <unicode hex="0058"/>
  <outline>
    <contour>
      <point x="814" y="0" type="line"/>
      <point x="450" y="0" type="line"/>
      <point x="450" y="261" type="line"/>
      <point x="440" y="263"/>
      <point x="430" y="264"/>
      <point x="420" y="264" type="curve" smooth="yes"/>
      <point x="410" y="264"/>
      <point x="401" y="264"/>
      <point x="389" y="261" type="curve"/>
      <point x="389" y="0" type="line"/>
      <point x="25" y="0" type="line"/>
      <point x="25" y="334" type="line"/>
      <point x="60" y="349"/>
      <point x="114" y="358"/>
      <point x="180" y="367" type="curve"/>
      <point x="115" y="375"/>
      <point x="64" y="384"/>
      <point x="27" y="399" type="curve"/>
      <point x="27" y="720" type="line"/>
      <point x="389" y="720" type="line"/>
      <point x="389" y="472" type="line"/>
      <point x="401" y="470"/>
      <point x="410" y="469"/>
      <point x="420" y="469" type="curve" smooth="yes"/>
      <point x="430" y="469"/>
      <point x="440" y="470"/>
      <point x="450" y="472" type="curve"/>
      <point x="450" y="720" type="line"/>
      <point x="813" y="720" type="line"/>
      <point x="813" y="399" type="line"/>
      <point x="776" y="385"/>
      <point x="726" y="375"/>
      <point x="660" y="367" type="curve"/>
      <point x="725" y="358"/>
      <point x="778" y="349"/>
      <point x="814" y="334" type="curve"/>
    </contour>
  </outline>
</glyph>
<glyph name="Y" format="1">
  <advance width="840"/>
  <unicode hex="0059"/>
  <outline>
    <contour>
      <point x="814" y="252" type="line"/>
      <point x="755" y="229"/>
      <point x="681" y="212"/>
      <point x="604" y="202" type="curve"/>
      <point x="604" y="0" type="line"/>
      <point x="240" y="0" type="line"/>
      <point x="240" y="202" type="line"/>
      <point x="159" y="212"/>
      <point x="84" y="229"/>
      <point x="25" y="252" type="curve"/>
      <point x="25" y="720" type="line"/>
      <point x="389" y="720" type="line"/>
      <point x="389" y="394" type="line"/>
      <point x="400" y="392"/>
      <point x="409" y="391"/>
      <point x="420" y="391" type="curve" smooth="yes"/>
      <point x="431" y="391"/>
      <point x="439" y="392"/>
      <point x="450" y="394" type="curve"/>
      <point x="450" y="720" type="line"/>
      <point x="814" y="720" type="line"/>
    </contour>
  </outline>
</glyph>
<glyph name="Z" format="1">
  <advance width="735"/>
  <unicode hex="005A"/>
  <outline>
    <contour>
      <point x="712" y="0" type="line"/>
      <point x="22" y="0" type="line"/>
      <point x="22" y="210" type="line"/>
      <point x="259" y="498" type="line"/>
      <point x="28" y="498" type="line"/>
      <point x="28" y="720" type="line"/>
      <point x="709" y="720" type="line"/>
      <point x="709" y="514" type="line"/>
      <point x="476" y="222" type="line"/>
      <point x="712" y="222" type="line"/>
    </contour>
  </outline>
</glyph>
<glyph name="bracketleft" format="1">
  <advance width="487"/>
  <unicode hex="005B"/>
  <outline>
    <contour>
      <point x="460" y="0" type="line"/>
      <point x="27" y="0" type="line"/>
      <point x="27" y="720" type="line"/>
      <point x="460" y="720" type="line"/>
      <point x="460" y="500" type="line"/>
      <point x="366" y="500" type="line"/>
      <point x="366" y="220" type="line"/>
      <point x="460" y="220" type="line"/>
    </contour>
  </outline>
</glyph>
<glyph name="backslash" format="1">
  <advance width="566"/>
  <unicode hex="005C"/>
  <outline>
    <contour>
      <point x="551" y="0" type="line"/>
      <point x="185" y="0" type="line"/>
      <point x="13" y="720" type="line"/>
      <point x="380" y="720" type="line"/>
    </contour>
  </outline>
</glyph>
<glyph name="bracketright" format="1">
  <advance width="487"/>
  <unicode hex="005D"/>
  <outline>
    <contour>
      <point x="460" y="0" type="line"/>
      <point x="27" y="0" type="line"/>
      <point x="27" y="220" type="line"/>
      <point x="121" y="220" type="line"/>
      <point x="121" y="500" type="line"/>
      <point x="27" y="500" type="line"/>
      <point x="27" y="720" type="line"/>
      <point x="460" y="720" type="line"/>
    </contour>
  </outline>
</glyph>
<glyph name="asciicircum" format="1">
  <advance width="711"/>
  <unicode hex="005E"/>
  <outline>
    <contour>
      <point x="702" y="350" type="line"/>
      <point x="400" y="350" type="line"/>
      <point x="355" y="542" type="line"/>
      <point x="310" y="350" type="line"/>
      <point x="8" y="350" type="line"/>
      <point x="159" y="725" type="line"/>
      <point x="551" y="725" type="line"/>
    </contour>
  </outline>
</glyph>
<glyph name="grave" format="1">
  <advance width="650"/>
  <unicode hex="0060"/>
  <outline>
    <contour>
      <point x="506" y="525" type="line"/>
      <point x="265" y="525" type="line"/>
      <point x="144" y="720" type="line"/>
      <point x="395" y="720" type="line"/>
    </contour>
  </outline>
</glyph>
<glyph name="a" format="1">
  <advance width="657"/>
  <unicode hex="0061"/>
  <outline>
    <contour>
      <point x="639" y="39" type="line"/>
      <point x="552" y="4"/>
      <point x="457" y="-15"/>
      <point x="329" y="-15" type="curve" smooth="yes"/>
      <point x="203" y="-15"/>
      <point x="106" y="3"/>
      <point x="19" y="39" type="curve"/>
      <point x="19" y="282" type="line"/>
      <point x="91" y="295"/>
      <point x="168" y="300"/>
      <point x="286" y="300" type="curve" smooth="yes"/>
      <point x="314" y="300"/>
      <point x="338" y="299"/>
      <point x="350" y="298" type="curve"/>
      <point x="350" y="359" type="line"/>
      <point x="343" y="362"/>
      <point x="337" y="363"/>
      <point x="329" y="363" type="curve" smooth="yes"/>
      <point x="320" y="363"/>
      <point x="314" y="362"/>
      <point x="307" y="359" type="curve"/>
      <point x="307" y="318" type="line"/>
      <point x="19" y="318" type="line"/>
      <point x="19" y="441" type="line"/>
      <point x="105" y="476"/>
      <point x="201" y="495"/>
      <point x="329" y="495" type="curve" smooth="yes"/>
      <point x="454" y="495"/>
      <point x="551" y="477"/>
      <point x="639" y="441" type="curve"/>
    </contour>
    <contour>
      <point x="350" y="113" type="curve"/>
      <point x="350" y="183" type="line"/>
      <point x="343" y="185"/>
      <point x="337" y="186"/>
      <point x="329" y="186" type="curve" smooth="yes"/>
      <point x="320" y="186"/>
      <point x="314" y="185"/>
      <point x="307" y="183" type="curve"/>
      <point x="307" y="113" type="line"/>
      <point x="314" y="110"/>
      <point x="320" y="109"/>
      <point x="329" y="109" type="curve" smooth="yes"/>
      <point x="337" y="109"/>
      <point x="343" y="110"/>
    </contour>
  </outline>
</glyph>
<glyph name="b" format="1">
  <advance width="659"/>
  <unicode hex="0062"/>
  <outline>
    <contour>
      <point x="640" y="39" type="line"/>
      <point x="554" y="5"/>
      <point x="458" y="-15"/>
      <point x="330" y="-15" type="curve" smooth="yes"/>
      <point x="204" y="-15"/>
      <point x="107" y="4"/>
      <point x="20" y="39" type="curve"/>
      <point x="20" y="720" type="line"/>
      <point x="310" y="720" type="line"/>
      <point x="310" y="483" type="line"/>
      <point x="329" y="486"/>
      <point x="357" y="490"/>
      <point x="395" y="490" type="curve" smooth="yes"/>
      <point x="482" y="490"/>
      <point x="566" y="474"/>
      <point x="640" y="436" type="curve"/>
    </contour>
    <contour>
      <point x="352" y="150" type="curve"/>
      <point x="352" y="325" type="line"/>
      <point x="344" y="327"/>
      <point x="339" y="328"/>
      <point x="330" y="328" type="curve" smooth="yes"/>
      <point x="321" y="328"/>
      <point x="316" y="327"/>
      <point x="308" y="325" type="curve"/>
      <point x="308" y="150" type="line"/>
      <point x="316" y="148"/>
      <point x="321" y="147"/>
      <point x="330" y="147" type="curve" smooth="yes"/>
      <point x="339" y="147"/>
      <point x="344" y="148"/>
    </contour>
  </outline>
</glyph>
<glyph name="e" format="1">
  <advance width="657"/>
  <unicode hex="0065"/>
  <outline>
    <contour>
      <point x="639" y="39" type="line"/>
      <point x="553" y="5"/>
      <point x="456" y="-15"/>
      <point x="329" y="-15" type="curve" smooth="yes"/>
      <point x="203" y="-15"/>
      <point x="106" y="4"/>
      <point x="19" y="39" type="curve"/>
      <point x="19" y="441" type="line"/>
      <point x="105" y="476"/>
      <point x="201" y="495"/>
      <point x="329" y="495" type="curve" smooth="yes"/>
      <point x="455" y="495"/>
      <point x="551" y="477"/>
      <point x="639" y="441" type="curve"/>
      <point x="639" y="182" type="line"/>
      <point x="307" y="182" type="line"/>
      <point x="307" y="121" type="line"/>
      <point x="314" y="118"/>
      <point x="320" y="117"/>
      <point x="329" y="117" type="curve" smooth="yes"/>
      <point x="337" y="117"/>
      <point x="343" y="118"/>
      <point x="350" y="121" type="curve"/>
      <point x="350" y="162" type="line"/>
      <point x="639" y="162" type="line"/>
    </contour>
    <contour>
      <point x="350" y="294" type="line"/>
      <point x="350" y="365" type="line"/>
      <point x="343" y="367"/>
      <point x="337" y="368"/>
      <point x="329" y="368" type="curve" smooth="yes"/>
      <point x="320" y="368"/>
      <point x="314" y="367"/>
      <point x="307" y="365" type="curve"/>
      <point x="307" y="294" type="line"/>
    </contour>
  </outline>
</glyph>
<glyph name="f" format="1">
  <advance width="426"/>
  <unicode hex="0066"/>
  <outline>
    <contour>
      <point x="425" y="549" type="line"/>
      <point x="383" y="549" type="line" smooth="yes"/>
      <point x="366" y="549"/>
      <point x="350" y="549"/>
      <point x="337" y="546" type="curve"/>
      <point x="337" y="480" type="line"/>
      <point x="417" y="480" type="line"/>
      <point x="417" y="299" type="line"/>
      <point x="337" y="299" type="line"/>
      <point x="337" y="0" type="line"/>
      <point x="45" y="0" type="line"/>
      <point x="45" y="299" type="line"/>
      <point x="10" y="299" type="line"/>
      <point x="10" y="480" type="line"/>
      <point x="45" y="480" type="line"/>
      <point x="45" y="682" type="line"/>
      <point x="129" y="710"/>
      <point x="214" y="722"/>
      <point x="317" y="722" type="curve" smooth="yes"/>
      <point x="425" y="722" type="line"/>
    </contour>
  </outline>
</glyph>
<glyph name="g" format="1">
  <advance width="659"/>
  <unicode hex="0067"/>
  <outline>
    <contour>
      <point x="639" y="-134" type="line"/>
      <point x="551" y="-169"/>
      <point x="454" y="-187"/>
      <point x="329" y="-187" type="curve" smooth="yes"/>
      <point x="201" y="-187"/>
      <point x="105" y="-168"/>
      <point x="19" y="-134" type="curve"/>
      <point x="19" y="-10" type="line"/>
      <point x="307" y="-10" type="line"/>
      <point x="307" y="-55" type="line"/>
      <point x="314" y="-57"/>
      <point x="320" y="-58"/>
      <point x="329" y="-58" type="curve" smooth="yes"/>
      <point x="337" y="-58"/>
      <point x="342" y="-57"/>
      <point x="349" y="-55" type="curve"/>
      <point x="349" y="12" type="line"/>
      <point x="330" y="10"/>
      <point x="301" y="7"/>
      <point x="264" y="7" type="curve" smooth="yes"/>
      <point x="176" y="7"/>
      <point x="92" y="17"/>
      <point x="19" y="41" type="curve"/>
      <point x="19" y="441" type="line"/>
      <point x="105" y="476"/>
      <point x="201" y="495"/>
      <point x="329" y="495" type="curve" smooth="yes"/>
      <point x="454" y="495"/>
      <point x="551" y="477"/>
      <point x="639" y="441" type="curve"/>
    </contour>
    <contour>
      <point x="350" y="155" type="curve"/>
      <point x="350" y="330" type="line"/>
      <point x="343" y="332"/>
      <point x="337" y="333"/>
      <point x="329" y="333" type="curve" smooth="yes"/>
      <point x="320" y="333"/>
      <point x="315" y="332"/>
      <point x="307" y="330" type="curve"/>
      <point x="307" y="155" type="line"/>
      <point x="315" y="153"/>
      <point x="320" y="152"/>
      <point x="329" y="152" type="curve" smooth="yes"/>
      <point x="337" y="152"/>
      <point x="343" y="153"/>
    </contour>
  </outline>
</glyph>
<glyph name="h" format="1">
  <advance width="660"/>
  <unicode hex="0068"/>
  <outline>
    <contour>
      <point x="640" y="0" type="line"/>
      <point x="350" y="0" type="line"/>
      <point x="350" y="307" type="line"/>
      <point x="343" y="310"/>
      <point x="338" y="311"/>
      <point x="330" y="311" type="curve" smooth="yes"/>
      <point x="322" y="311"/>
      <point x="317" y="310"/>
      <point x="310" y="307" type="curve"/>
      <point x="310" y="0" type="line"/>
      <point x="20" y="0" type="line"/>
      <point x="20" y="720" type="line"/>
      <point x="310" y="720" type="line"/>
      <point x="310" y="483" type="line"/>
      <point x="329" y="486"/>
      <point x="357" y="490"/>
      <point x="395" y="490" type="curve" smooth="yes"/>
      <point x="482" y="490"/>
      <point x="566" y="474"/>
      <point x="640" y="436" type="curve"/>
    </contour>
  </outline>
</glyph>
<glyph name="i" format="1">
  <advance width="332"/>
  <unicode hex="0069"/>
  <outline>
    <contour>
      <point x="312" y="507" type="line"/>
      <point x="20" y="507" type="line"/>
      <point x="20" y="720" type="line"/>
      <point x="312" y="720" type="line"/>
    </contour>
    <contour>
      <point x="312" y="0" type="line"/>
      <point x="20" y="0" type="line"/>
      <point x="20" y="480" type="line"/>
      <point x="312" y="480" type="line"/>
    </contour>
  </outline>
</glyph>
<glyph name="j" format="1">
  <advance width="332"/>
  <unicode hex="006A"/>
  <outline>
    <contour>
      <point x="312" y="507" type="line"/>
      <point x="20" y="507" type="line"/>
      <point x="20" y="720" type="line"/>
      <point x="312" y="720" type="line"/>
    </contour>
    <contour>
      <point x="312" y="-140" type="line"/>
      <point x="229" y="-167"/>
      <point x="143" y="-180"/>
      <point x="40" y="-180" type="curve" smooth="yes"/>
      <point x="-55" y="-180" type="line"/>
      <point x="-55" y="-22" type="line"/>
      <point x="-25" y="-22" type="line" smooth="yes"/>
      <point x="-9" y="-22"/>
      <point x="8" y="-22"/>
      <point x="20" y="-19" type="curve"/>
      <point x="20" y="480" type="line"/>
      <point x="312" y="480" type="line"/>
    </contour>
  </outline>
</glyph>
<glyph name="k" format="1">
  <advance width="659"/>
  <unicode hex="006B"/>
  <outline>
    <contour>
      <point x="640" y="0" type="line"/>
      <point x="350" y="0" type="line"/>
      <point x="350" y="144" type="line"/>
      <point x="343" y="146"/>
      <point x="337" y="147"/>
      <point x="329" y="147" type="curve" smooth="yes"/>
      <point x="310" y="147" type="line"/>
      <point x="310" y="0" type="line"/>
      <point x="20" y="0" type="line"/>
      <point x="20" y="720" type="line"/>
      <point x="310" y="720" type="line"/>
      <point x="310" y="339" type="line"/>
      <point x="329" y="339" type="line" smooth="yes"/>
      <point x="339" y="339"/>
      <point x="344" y="340"/>
      <point x="350" y="342" type="curve"/>
      <point x="350" y="480" type="line"/>
      <point x="639" y="480" type="line"/>
      <point x="639" y="274" type="line"/>
      <point x="614" y="263"/>
      <point x="559" y="250"/>
      <point x="501" y="243" type="curve"/>
      <point x="558" y="237"/>
      <point x="612" y="224"/>
      <point x="640" y="211" type="curve"/>
    </contour>
  </outline>
</glyph>
<glyph name="m" format="1">
  <advance width="960"/>
  <unicode hex="006D"/>
  <outline>
    <contour>
      <point x="940" y="0" type="line"/>
      <point x="660" y="0" type="line"/>
      <point x="660" y="315" type="line"/>
      <point x="651" y="317"/>
      <point x="638" y="318"/>
      <point x="620" y="318" type="curve"/>
      <point x="620" y="0" type="line"/>
      <point x="340" y="0" type="line"/>
      <point x="340" y="318" type="line"/>
      <point x="322" y="318"/>
      <point x="309" y="317"/>
      <point x="300" y="315" type="curve"/>
      <point x="300" y="0" type="line"/>
      <point x="20" y="0" type="line"/>
      <point x="20" y="449" type="line"/>
      <point x="145" y="483"/>
      <point x="330" y="496"/>
      <point x="480" y="496" type="curve" smooth="yes"/>
      <point x="630" y="496"/>
      <point x="815" y="483"/>
      <point x="940" y="449" type="curve"/>
    </contour>
  </outline>
</glyph>
<glyph name="n" format="1">
  <advance width="660"/>
  <unicode hex="006E"/>
  <outline>
    <contour>
      <point x="640" y="0" type="line"/>
      <point x="350" y="0" type="line"/>
      <point x="350" y="307" type="line"/>
      <point x="343" y="310"/>
      <point x="338" y="311"/>
      <point x="330" y="311" type="curve" smooth="yes"/>
      <point x="322" y="311"/>
      <point x="317" y="310"/>
      <point x="310" y="307" type="curve"/>
      <point x="310" y="0" type="line"/>
      <point x="20" y="0" type="line"/>
      <point x="20" y="441" type="line"/>
      <point x="106" y="476"/>
      <point x="202" y="495"/>
      <point x="330" y="495" type="curve" smooth="yes"/>
      <point x="455" y="495"/>
      <point x="552" y="477"/>
      <point x="640" y="441" type="curve"/>
    </contour>
  </outline>
</glyph>
<glyph name="o" format="1">
  <advance width="657"/>
  <unicode hex="006F"/>
  <outline>
    <contour>
      <point x="639" y="39" type="line"/>
      <point x="553" y="5"/>
      <point x="456" y="-15"/>
      <point x="329" y="-15" type="curve" smooth="yes"/>
      <point x="203" y="-15"/>
      <point x="106" y="4"/>
      <point x="19" y="39" type="curve"/>
      <point x="19" y="441" type="line"/>
      <point x="105" y="476"/>
      <point x="201" y="495"/>
      <point x="329" y="495" type="curve" smooth="yes"/>
      <point x="455" y="495"/>
      <point x="551" y="477"/>
      <point x="639" y="441" type="curve"/>
    </contour>
    <contour>
      <point x="350" y="150" type="curve"/>
      <point x="350" y="330" type="line"/>
      <point x="343" y="332"/>
      <point x="337" y="333"/>
      <point x="329" y="333" type="curve" smooth="yes"/>
      <point x="320" y="333"/>
      <point x="314" y="332"/>
      <point x="307" y="330" type="curve"/>
      <point x="307" y="150" type="line"/>
      <point x="314" y="148"/>
      <point x="320" y="147"/>
      <point x="329" y="147" type="curve" smooth="yes"/>
      <point x="337" y="147"/>
      <point x="343" y="148"/>
    </contour>
  </outline>
</glyph>
<glyph name="p" format="1">
  <advance width="659"/>
  <unicode hex="0070"/>
  <outline>
    <contour>
      <point x="640" y="44" type="line"/>
      <point x="566" y="6"/>
      <point x="482" y="-10"/>
      <point x="395" y="-10" type="curve" smooth="yes"/>
      <point x="357" y="-10"/>
      <point x="329" y="-6"/>
      <point x="310" y="-3" type="curve"/>
      <point x="310" y="-175" type="line"/>
      <point x="20" y="-175" type="line"/>
      <point x="20" y="441" type="line"/>
      <point x="107" y="477"/>
      <point x="204" y="495"/>
      <point x="330" y="495" type="curve" smooth="yes"/>
      <point x="458" y="495"/>
      <point x="554" y="476"/>
      <point x="640" y="441" type="curve"/>
    </contour>
    <contour>
      <point x="352" y="155" type="curve"/>
      <point x="352" y="330" type="line"/>
      <point x="344" y="332"/>
      <point x="339" y="333"/>
      <point x="330" y="333" type="curve" smooth="yes"/>
      <point x="321" y="333"/>
      <point x="316" y="332"/>
      <point x="308" y="330" type="curve"/>
      <point x="308" y="155" type="line"/>
      <point x="316" y="153"/>
      <point x="321" y="152"/>
      <point x="330" y="152" type="curve" smooth="yes"/>
      <point x="339" y="152"/>
      <point x="344" y="153"/>
    </contour>
  </outline>
</glyph>
<glyph name="q" format="1">
  <advance width="659"/>
  <unicode hex="0071"/>
  <outline>
    <contour>
      <point x="639" y="-175" type="line"/>
      <point x="349" y="-175" type="line"/>
      <point x="349" y="-3" type="line"/>
      <point x="330" y="-6"/>
      <point x="301" y="-10"/>
      <point x="264" y="-10" type="curve" smooth="yes"/>
      <point x="176" y="-10"/>
      <point x="92" y="6"/>
      <point x="19" y="44" type="curve"/>
      <point x="19" y="441" type="line"/>
      <point x="105" y="476"/>
      <point x="201" y="495"/>
      <point x="329" y="495" type="curve" smooth="yes"/>
      <point x="454" y="495"/>
      <point x="551" y="477"/>
      <point x="639" y="441" type="curve"/>
    </contour>
    <contour>
      <point x="350" y="155" type="curve"/>
      <point x="350" y="330" type="line"/>
      <point x="343" y="332"/>
      <point x="337" y="333"/>
      <point x="329" y="333" type="curve" smooth="yes"/>
      <point x="320" y="333"/>
      <point x="315" y="332"/>
      <point x="307" y="330" type="curve"/>
      <point x="307" y="155" type="line"/>
      <point x="315" y="153"/>
      <point x="320" y="152"/>
      <point x="329" y="152" type="curve" smooth="yes"/>
      <point x="337" y="152"/>
      <point x="343" y="153"/>
    </contour>
  </outline>
</glyph>
<glyph name="r" format="1">
  <advance width="436"/>
  <unicode hex="0072"/>
  <outline>
    <contour>
      <point x="427" y="303" type="line"/>
      <point x="358" y="303" type="line" smooth="yes"/>
      <point x="341" y="303"/>
      <point x="325" y="303"/>
      <point x="312" y="300" type="curve"/>
      <point x="312" y="0" type="line"/>
      <point x="20" y="0" type="line"/>
      <point x="20" y="446" type="line"/>
      <point x="104" y="474"/>
      <point x="189" y="486"/>
      <point x="292" y="486" type="curve" smooth="yes"/>
      <point x="427" y="486" type="line"/>
    </contour>
  </outline>
</glyph>
<glyph name="s" format="1">
  <advance width="657"/>
  <unicode hex="0073"/>
  <outline>
    <contour>
      <point x="639" y="39" type="line"/>
      <point x="551" y="4"/>
      <point x="454" y="-15"/>
      <point x="329" y="-15" type="curve" smooth="yes"/>
      <point x="201" y="-15"/>
      <point x="105" y="5"/>
      <point x="19" y="39" type="curve"/>
      <point x="19" y="152" type="line"/>
      <point x="304" y="152" type="line"/>
      <point x="304" y="118" type="line"/>
      <point x="311" y="116"/>
      <point x="319" y="115"/>
      <point x="329" y="115" type="curve" smooth="yes"/>
      <point x="338" y="115"/>
      <point x="346" y="116"/>
      <point x="353" y="118" type="curve"/>
      <point x="353" y="172" type="line"/>
      <point x="19" y="172" type="line"/>
      <point x="19" y="441" type="line"/>
      <point x="106" y="477"/>
      <point x="203" y="495"/>
      <point x="329" y="495" type="curve" smooth="yes"/>
      <point x="456" y="495"/>
      <point x="553" y="476"/>
      <point x="639" y="441" type="curve"/>
      <point x="639" y="328" type="line"/>
      <point x="353" y="328" type="line"/>
      <point x="353" y="362" type="line"/>
      <point x="346" y="364"/>
      <point x="338" y="365"/>
      <point x="329" y="365" type="curve" smooth="yes"/>
      <point x="319" y="365"/>
      <point x="311" y="364"/>
      <point x="304" y="362" type="curve"/>
      <point x="304" y="310" type="line"/>
      <point x="639" y="310" type="line"/>
    </contour>
  </outline>
</glyph>
<glyph name="t" format="1">
  <advance width="442"/>
  <unicode hex="0074"/>
  <outline>
    <contour>
      <point x="422" y="-6" type="line"/>
      <point x="317" y="-6" type="line" smooth="yes"/>
      <point x="214" y="-6"/>
      <point x="129" y="7"/>
      <point x="45" y="34" type="curve"/>
      <point x="45" y="299" type="line"/>
      <point x="10" y="299" type="line"/>
      <point x="10" y="480" type="line"/>
      <point x="45" y="480" type="line"/>
      <point x="45" y="640" type="line"/>
      <point x="337" y="640" type="line"/>
      <point x="337" y="480" type="line"/>
      <point x="422" y="480" type="line"/>
      <point x="422" y="299" type="line"/>
      <point x="337" y="299" type="line"/>
      <point x="337" y="170" type="line"/>
      <point x="350" y="168"/>
      <point x="366" y="167"/>
      <point x="383" y="167" type="curve" smooth="yes"/>
      <point x="422" y="167" type="line"/>
    </contour>
  </outline>
</glyph>
<glyph name="u" format="1">
  <advance width="660"/>
  <unicode hex="0075"/>
  <outline>
    <contour>
      <point x="640" y="39" type="line"/>
      <point x="552" y="3"/>
      <point x="455" y="-15"/>
      <point x="330" y="-15" type="curve" smooth="yes"/>
      <point x="202" y="-15"/>
      <point x="106" y="4"/>
      <point x="20" y="39" type="curve"/>
      <point x="20" y="480" type="line"/>
      <point x="310" y="480" type="line"/>
      <point x="310" y="173" type="line"/>
      <point x="317" y="170"/>
      <point x="322" y="169"/>
      <point x="330" y="169" type="curve" smooth="yes"/>
      <point x="338" y="169"/>
      <point x="343" y="170"/>
      <point x="350" y="173" type="curve"/>
      <point x="350" y="480" type="line"/>
      <point x="640" y="480" type="line"/>
    </contour>
  </outline>
</glyph>
<glyph name="v" format="1">
  <advance width="665"/>
  <unicode hex="0076"/>
  <outline>
    <contour>
      <point x="637" y="327" type="line" smooth="yes"/>
      <point x="637" y="177"/>
      <point x="577" y="87"/>
      <point x="479" y="-2" type="curve"/>
      <point x="176" y="-2" type="line"/>
      <point x="79" y="86"/>
      <point x="17" y="176"/>
      <point x="17" y="327" type="curve" smooth="yes"/>
      <point x="17" y="480" type="line"/>
      <point x="307" y="480" type="line"/>
      <point x="307" y="302" type="line" smooth="yes"/>
      <point x="307" y="226"/>
      <point x="312" y="202"/>
      <point x="327" y="161" type="curve"/>
      <point x="342" y="202"/>
      <point x="347" y="226"/>
      <point x="347" y="302" type="curve" smooth="yes"/>
      <point x="347" y="480" type="line"/>
      <point x="637" y="480" type="line"/>
    </contour>
  </outline>
</glyph>
<glyph name="w" format="1">
  <advance width="960"/>
  <unicode hex="0077"/>
  <outline>
    <contour>
      <point x="940" y="31" type="line"/>
      <point x="815" y="-3"/>
      <point x="630" y="-16"/>
      <point x="480" y="-16" type="curve" smooth="yes"/>
      <point x="330" y="-16"/>
      <point x="145" y="-3"/>
      <point x="20" y="31" type="curve"/>
      <point x="20" y="480" type="line"/>
      <point x="300" y="480" type="line"/>
      <point x="300" y="165" type="line"/>
      <point x="309" y="163"/>
      <point x="322" y="162"/>
      <point x="340" y="162" type="curve"/>
      <point x="340" y="480" type="line"/>
      <point x="620" y="480" type="line"/>
      <point x="620" y="162" type="line"/>
      <point x="638" y="163"/>
      <point x="651" y="164"/>
      <point x="660" y="165" type="curve"/>
      <point x="660" y="480" type="line"/>
      <point x="940" y="480" type="line"/>
    </contour>
  </outline>
</glyph>
<glyph name="x" format="1">
  <advance width="657"/>
  <unicode hex="0078"/>
  <outline>
    <contour>
      <point x="639" y="0" type="line"/>
      <point x="349" y="0" type="line"/>
      <point x="349" y="144" type="line"/>
      <point x="342" y="146"/>
      <point x="337" y="147"/>
      <point x="329" y="147" type="curve" smooth="yes"/>
      <point x="321" y="147"/>
      <point x="316" y="146"/>
      <point x="309" y="144" type="curve"/>
      <point x="309" y="0" type="line"/>
      <point x="19" y="0" type="line"/>
      <point x="19" y="211" type="line"/>
      <point x="45" y="223"/>
      <point x="99" y="236"/>
      <point x="157" y="243" type="curve"/>
      <point x="101" y="249"/>
      <point x="46" y="263"/>
      <point x="20" y="274" type="curve"/>
      <point x="20" y="480" type="line"/>
      <point x="309" y="480" type="line"/>
      <point x="309" y="342" type="line"/>
      <point x="316" y="339"/>
      <point x="321" y="338"/>
      <point x="329" y="338" type="curve" smooth="yes"/>
      <point x="337" y="338"/>
      <point x="342" y="339"/>
      <point x="349" y="342" type="curve"/>
      <point x="349" y="480" type="line"/>
      <point x="637" y="480" type="line"/>
      <point x="637" y="274" type="line"/>
      <point x="613" y="263"/>
      <point x="558" y="250"/>
      <point x="500" y="243" type="curve"/>
      <point x="557" y="237"/>
      <point x="611" y="224"/>
      <point x="639" y="211" type="curve"/>
    </contour>
  </outline>
</glyph>
<glyph name="y" format="1">
  <advance width="660"/>
  <unicode hex="0079"/>
  <outline>
    <contour>
      <point x="640" y="-134" type="line"/>
      <point x="552" y="-169"/>
      <point x="456" y="-187"/>
      <point x="330" y="-187" type="curve" smooth="yes"/>
      <point x="202" y="-187"/>
      <point x="106" y="-168"/>
      <point x="20" y="-134" type="curve"/>
      <point x="20" y="-10" type="line"/>
      <point x="308" y="-10" type="line"/>
      <point x="308" y="-55" type="line"/>
      <point x="315" y="-57"/>
      <point x="321" y="-57"/>
      <point x="330" y="-57" type="curve" smooth="yes"/>
      <point x="338" y="-57"/>
      <point x="343" y="-57"/>
      <point x="350" y="-55" type="curve"/>
      <point x="350" y="12" type="line"/>
      <point x="331" y="10"/>
      <point x="303" y="7"/>
      <point x="265" y="7" type="curve" smooth="yes"/>
      <point x="178" y="7"/>
      <point x="94" y="17"/>
      <point x="20" y="41" type="curve"/>
      <point x="20" y="480" type="line"/>
      <point x="310" y="480" type="line"/>
      <point x="310" y="173" type="line"/>
      <point x="317" y="170"/>
      <point x="322" y="169"/>
      <point x="330" y="169" type="curve" smooth="yes"/>
      <point x="338" y="169"/>
      <point x="343" y="170"/>
      <point x="350" y="173" type="curve"/>
      <point x="350" y="480" type="line"/>
      <point x="640" y="480" type="line"/>
    </contour>
  </outline>
</glyph>
<glyph name="z" format="1">
  <advance width="567"/>
  <unicode hex="007A"/>
  <outline>
    <contour>
      <point x="554" y="0" type="line"/>
      <point x="13" y="0" type="line"/>
      <point x="13" y="159" type="line"/>
      <point x="186" y="323" type="line"/>
      <point x="16" y="323" type="line"/>
      <point x="16" y="480" type="line"/>
      <point x="553" y="480" type="line"/>
      <point x="553" y="319" type="line"/>
      <point x="383" y="158" type="line"/>
      <point x="554" y="158" type="line"/>
    </contour>
  </outline>
</glyph>
<glyph name="braceleft" format="1">
  <advance width="528"/>
  <unicode hex="007B"/>
  <outline>
    <contour>
      <point x="502" y="-5" type="line"/>
      <point x="316" y="-5"/>
      <point x="215" y="4"/>
      <point x="84" y="49" type="curve"/>
      <point x="84" y="264" type="line"/>
      <point x="66" y="271"/>
      <point x="44" y="272"/>
      <point x="12" y="272" type="curve"/>
      <point x="12" y="461" type="line"/>
      <point x="44" y="461"/>
      <point x="64" y="463"/>
      <point x="84" y="470" type="curve"/>
      <point x="84" y="671" type="line"/>
      <point x="213" y="715"/>
      <point x="312" y="725"/>
      <point x="502" y="725" type="curve"/>
      <point x="502" y="500" type="line"/>
      <point x="467" y="500"/>
      <point x="439" y="500"/>
      <point x="409" y="495" type="curve"/>
      <point x="409" y="395" type="line"/>
      <point x="383" y="384"/>
      <point x="336" y="375"/>
      <point x="284" y="367" type="curve"/>
      <point x="334" y="360"/>
      <point x="383" y="350"/>
      <point x="409" y="338" type="curve"/>
      <point x="409" y="225" type="line"/>
      <point x="437" y="221"/>
      <point x="465" y="220"/>
      <point x="502" y="220" type="curve"/>
    </contour>
  </outline>
</glyph>
<glyph name="bar" format="1">
  <advance width="375"/>
  <unicode hex="007C"/>
  <outline>
    <contour>
      <point x="347" y="-125" type="line"/>
      <point x="28" y="-125" type="line"/>
      <point x="28" y="788" type="line"/>
      <point x="347" y="788" type="line"/>
    </contour>
  </outline>
</glyph>
<glyph name="braceright" format="1">
  <advance width="528"/>
  <unicode hex="007D"/>
  <outline>
    <contour>
      <point x="515" y="272" type="line"/>
      <point x="484" y="272"/>
      <point x="461" y="271"/>
      <point x="444" y="264" type="curve"/>
      <point x="444" y="49" type="line"/>
      <point x="312" y="4"/>
      <point x="213" y="-5"/>
      <point x="27" y="-5" type="curve"/>
      <point x="27" y="220" type="line"/>
      <point x="63" y="220"/>
      <point x="91" y="221"/>
      <point x="120" y="225" type="curve"/>
      <point x="120" y="338" type="line"/>
      <point x="146" y="350"/>
      <point x="194" y="360"/>
      <point x="243" y="367" type="curve"/>
      <point x="192" y="375"/>
      <point x="146" y="384"/>
      <point x="120" y="395" type="curve"/>
      <point x="120" y="495" type="line"/>
      <point x="90" y="500"/>
      <point x="62" y="500"/>
      <point x="27" y="500" type="curve"/>
      <point x="27" y="725" type="line"/>
      <point x="215" y="725"/>
      <point x="315" y="715"/>
      <point x="444" y="671" type="curve"/>
      <point x="444" y="470" type="line"/>
      <point x="464" y="463"/>
      <point x="484" y="461"/>
      <point x="515" y="461" type="curve"/>
    </contour>
  </outline>
</glyph>
<glyph name="asciitilde" format="1">
  <advance width="788"/>
  <unicode hex="007E"/>
  <outline>
    <contour>
      <point x="758" y="496" type="line"/>
      <point x="706" y="243" type="line"/>
      <point x="469" y="243" type="line"/>
      <point x="293" y="308" type="line"/>
      <point x="280" y="243" type="line"/>
      <point x="30" y="243" type="line"/>
      <point x="82" y="496" type="line"/>
      <point x="319" y="496" type="line"/>
      <point x="495" y="431" type="line"/>
      <point x="508" y="496" type="line"/>
    </contour>
  </outline>
</glyph>
<glyph name="exclamdown" format="1">
  <advance width="400"/>
  <unicode hex="00A1"/>
  <outline>
    <contour>
      <point x="373" y="511" type="line"/>
      <point x="26" y="511" type="line"/>
      <point x="26" y="720" type="line"/>
      <point x="373" y="720" type="line"/>
    </contour>
    <contour>
      <point x="373" y="0" type="line"/>
      <point x="26" y="0" type="line"/>
      <point x="26" y="486" type="line"/>
      <point x="373" y="486" type="line"/>
    </contour>
  </outline>
</glyph>
<glyph name="cent" format="1">
  <advance width="657"/>
  <unicode hex="00A2"/>
  <outline>
    <contour>
      <point x="639" y="157" type="line"/>
      <point x="590" y="138"/>
      <point x="538" y="123"/>
      <point x="479" y="114" type="curve"/>
      <point x="479" y="0" type="line"/>
      <point x="172" y="0" type="line"/>
      <point x="172" y="115" type="line"/>
      <point x="116" y="124"/>
      <point x="66" y="138"/>
      <point x="19" y="157" type="curve"/>
      <point x="19" y="559" type="line"/>
      <point x="66" y="578"/>
      <point x="116" y="592"/>
      <point x="172" y="601" type="curve"/>
      <point x="172" y="720" type="line"/>
      <point x="479" y="720" type="line"/>
      <point x="479" y="603" type="line"/>
      <point x="538" y="594"/>
      <point x="590" y="579"/>
      <point x="639" y="559" type="curve"/>
      <point x="639" y="373" type="line"/>
      <point x="350" y="373" type="line"/>
      <point x="350" y="448" type="line"/>
      <point x="343" y="450"/>
      <point x="335" y="451"/>
      <point x="329" y="451" type="curve" smooth="yes"/>
      <point x="322" y="451"/>
      <point x="314" y="450"/>
      <point x="307" y="448" type="curve"/>
      <point x="307" y="268" type="line"/>
      <point x="314" y="266"/>
      <point x="322" y="265"/>
      <point x="329" y="265" type="curve" smooth="yes"/>
      <point x="335" y="265"/>
      <point x="343" y="266"/>
      <point x="350" y="268" type="curve"/>
      <point x="350" y="343" type="line"/>
      <point x="639" y="343" type="line"/>
    </contour>
  </outline>
</glyph>
<glyph name="sterling" format="1">
  <advance width="811"/>
  <unicode hex="00A3"/>
  <outline>
    <contour>
      <point x="783" y="0" type="line"/>
      <point x="27" y="0" type="line"/>
      <point x="27" y="215" type="line"/>
      <point x="27" y="215" type="line"/>
      <point x="27" y="244" type="line"/>
      <point x="27" y="244" type="line"/>
      <point x="27" y="456" type="line"/>
      <point x="27" y="456" type="line"/>
      <point x="27" y="674" type="line"/>
      <point x="131" y="714"/>
      <point x="263" y="735"/>
      <point x="407" y="735" type="curve" smooth="yes"/>
      <point x="548" y="735"/>
      <point x="678" y="715"/>
      <point x="783" y="674" type="curve"/>
      <point x="783" y="481" type="line"/>
      <point x="438" y="481" type="line"/>
      <point x="438" y="542" type="line"/>
      <point x="426" y="545"/>
      <point x="418" y="545"/>
      <point x="404" y="545" type="curve" smooth="yes"/>
      <point x="392" y="545"/>
      <point x="384" y="545"/>
      <point x="371" y="542" type="curve"/>
      <point x="371" y="456" type="line"/>
      <point x="755" y="456" type="line"/>
      <point x="755" y="244" type="line"/>
      <point x="371" y="244" type="line"/>
      <point x="371" y="215" type="line"/>
      <point x="783" y="215" type="line"/>
    </contour>
  </outline>
</glyph>
<glyph name="yen" format="1">
  <advance width="840"/>
  <unicode hex="00A5"/>
  <outline>
    <contour>
      <point x="814" y="292" type="line"/>
      <point x="755" y="269"/>
      <point x="681" y="252"/>
      <point x="604" y="242" type="curve"/>
      <point x="604" y="217" type="line"/>
      <point x="704" y="217" type="line"/>
      <point x="704" y="44" type="line"/>
      <point x="604" y="44" type="line"/>
      <point x="604" y="0" type="line"/>
      <point x="240" y="0" type="line"/>
      <point x="240" y="44" type="line"/>
      <point x="140" y="44" type="line"/>
      <point x="140" y="217" type="line"/>
      <point x="240" y="217" type="line"/>
      <point x="240" y="242" type="line"/>
      <point x="159" y="252"/>
      <point x="84" y="269"/>
      <point x="25" y="292" type="curve"/>
      <point x="25" y="720" type="line"/>
      <point x="389" y="720" type="line"/>
      <point x="389" y="424" type="line"/>
      <point x="400" y="422"/>
      <point x="409" y="421"/>
      <point x="420" y="421" type="curve" smooth="yes"/>
      <point x="431" y="421"/>
      <point x="439" y="422"/>
      <point x="450" y="424" type="curve"/>
      <point x="450" y="720" type="line"/>
      <point x="814" y="720" type="line"/>
    </contour>
  </outline>
</glyph>
<glyph name="section" format="1">
  <advance width="793"/>
  <unicode hex="00A7"/>
  <outline>
    <contour>
      <point x="773" y="-126" type="line"/>
      <point x="669" y="-166"/>
      <point x="545" y="-187"/>
      <point x="401" y="-187" type="curve" smooth="yes"/>
      <point x="260" y="-187"/>
      <point x="136" y="-167"/>
      <point x="30" y="-126" type="curve"/>
      <point x="30" y="59" type="line"/>
      <point x="361" y="59" type="line"/>
      <point x="361" y="13" type="line"/>
      <point x="373" y="11"/>
      <point x="383" y="10"/>
      <point x="397" y="10" type="curve" smooth="yes"/>
      <point x="409" y="10"/>
      <point x="416" y="11"/>
      <point x="428" y="13" type="curve"/>
      <point x="428" y="62" type="line"/>
      <point x="415" y="75" type="line"/>
      <point x="409" y="75"/>
      <point x="403" y="75"/>
      <point x="397" y="75" type="curve" smooth="yes"/>
      <point x="253" y="75"/>
      <point x="129" y="88"/>
      <point x="25" y="112" type="curve"/>
      <point x="25" y="409" type="line"/>
      <point x="42" y="416"/>
      <point x="59" y="422"/>
      <point x="77" y="427" type="curve"/>
      <point x="25" y="480" type="line"/>
      <point x="25" y="674" type="line"/>
      <point x="129" y="714"/>
      <point x="253" y="735"/>
      <point x="397" y="735" type="curve" smooth="yes"/>
      <point x="538" y="735"/>
      <point x="662" y="715"/>
      <point x="768" y="674" type="curve"/>
      <point x="768" y="489" type="line"/>
      <point x="437" y="489" type="line"/>
      <point x="437" y="535" type="line"/>
      <point x="425" y="537"/>
      <point x="415" y="538"/>
      <point x="401" y="538" type="curve" smooth="yes"/>
      <point x="389" y="538"/>
      <point x="382" y="537"/>
      <point x="370" y="535" type="curve"/>
      <point x="370" y="486" type="line"/>
      <point x="386" y="470" type="line"/>
      <point x="390" y="470"/>
      <point x="393" y="470"/>
      <point x="397" y="470" type="curve" smooth="yes"/>
      <point x="538" y="470"/>
      <point x="662" y="458"/>
      <point x="768" y="433" type="curve"/>
      <point x="768" y="136" type="line"/>
      <point x="753" y="130"/>
      <point x="738" y="125"/>
      <point x="722" y="120" type="curve"/>
      <point x="773" y="68" type="line"/>
    </contour>
    <contour>
      <point x="437" y="235" type="curve"/>
      <point x="437" y="310" type="line"/>
      <point x="425" y="312"/>
      <point x="415" y="313"/>
      <point x="401" y="313" type="curve" smooth="yes"/>
      <point x="389" y="313"/>
      <point x="382" y="312"/>
      <point x="370" y="310" type="curve"/>
      <point x="370" y="235" type="line"/>
      <point x="382" y="233"/>
      <point x="389" y="232"/>
      <point x="401" y="232" type="curve" smooth="yes"/>
      <point x="415" y="232"/>
      <point x="425" y="233"/>
    </contour>
  </outline>
</glyph>
<glyph name="dieresis" format="1">
  <advance width="650"/>
  <unicode hex="00A8"/>
  <outline>
    <contour>
      <point x="595" y="525" type="line"/>
      <point x="343" y="525" type="line"/>
      <point x="343" y="720" type="line"/>
      <point x="595" y="720" type="line"/>
    </contour>
    <contour>
      <point x="307" y="525" type="line"/>
      <point x="55" y="525" type="line"/>
      <point x="55" y="720" type="line"/>
      <point x="307" y="720" type="line"/>
    </contour>
  </outline>
</glyph>
<glyph name="copyright" format="1">
  <advance width="965"/>
  <unicode hex="00A9"/>
  <outline>
    <contour>
      <point x="937" y="50" type="line"/>
      <point x="823" y="6"/>
      <point x="653" y="-15"/>
      <point x="483" y="-15" type="curve" smooth="yes"/>
      <point x="311" y="-15"/>
      <point x="139" y="6"/>
      <point x="25" y="50" type="curve"/>
      <point x="25" y="670" type="line"/>
      <point x="139" y="714"/>
      <point x="311" y="735"/>
      <point x="483" y="735" type="curve" smooth="yes"/>
      <point x="653" y="735"/>
      <point x="823" y="714"/>
      <point x="937" y="670" type="curve"/>
    </contour>
    <contour>
      <point x="776" y="129" type="curve"/>
      <point x="776" y="591" type="line"/>
      <point x="673" y="615"/>
      <point x="575" y="624"/>
      <point x="482" y="624" type="curve" smooth="yes"/>
      <point x="390" y="624"/>
      <point x="293" y="615"/>
      <point x="188" y="592" type="curve"/>
      <point x="188" y="128" type="line"/>
      <point x="293" y="105"/>
      <point x="390" y="96"/>
      <point x="482" y="96" type="curve" smooth="yes"/>
      <point x="575" y="96"/>
      <point x="673" y="105"/>
    </contour>
    <contour>
      <point x="715" y="175" type="line"/>
      <point x="654" y="151"/>
      <point x="567" y="139"/>
      <point x="482" y="139" type="curve" smooth="yes"/>
      <point x="399" y="139"/>
      <point x="310" y="151"/>
      <point x="247" y="175" type="curve"/>
      <point x="247" y="547" type="line"/>
      <point x="309" y="571"/>
      <point x="398" y="583"/>
      <point x="482" y="583" type="curve" smooth="yes"/>
      <point x="566" y="583"/>
      <point x="653" y="572"/>
      <point x="715" y="547" type="curve"/>
      <point x="715" y="385" type="line"/>
      <point x="502" y="385" type="line"/>
      <point x="502" y="460" type="line"/>
      <point x="494" y="462"/>
      <point x="489" y="462"/>
      <point x="482" y="462" type="curve" smooth="yes"/>
      <point x="474" y="462"/>
      <point x="470" y="462"/>
      <point x="461" y="460" type="curve"/>
      <point x="461" y="262" type="line"/>
      <point x="469" y="261"/>
      <point x="474" y="260"/>
      <point x="482" y="260" type="curve" smooth="yes"/>
      <point x="489" y="260"/>
      <point x="494" y="261"/>
      <point x="502" y="262" type="curve"/>
      <point x="502" y="337" type="line"/>
      <point x="715" y="337" type="line"/>
    </contour>
  </outline>
</glyph>
<glyph name="ordfeminine" format="1">
  <advance width="590"/>
  <unicode hex="00AA"/>
  <outline>
    <contour>
      <point x="571" y="326" type="line"/>
      <point x="493" y="295"/>
      <point x="409" y="278"/>
      <point x="295" y="278" type="curve" smooth="yes"/>
      <point x="183" y="278"/>
      <point x="97" y="294"/>
      <point x="19" y="326" type="curve"/>
      <point x="19" y="542" type="line"/>
      <point x="83" y="554"/>
      <point x="152" y="558"/>
      <point x="257" y="558" type="curve" smooth="yes"/>
      <point x="282" y="558"/>
      <point x="303" y="558"/>
      <point x="314" y="557" type="curve"/>
      <point x="314" y="611" type="line"/>
      <point x="307" y="614"/>
      <point x="302" y="615"/>
      <point x="295" y="615" type="curve" smooth="yes"/>
      <point x="287" y="615"/>
      <point x="282" y="614"/>
      <point x="275" y="611" type="curve"/>
      <point x="275" y="574" type="line"/>
      <point x="19" y="574" type="line"/>
      <point x="19" y="684" type="line"/>
      <point x="96" y="715"/>
      <point x="181" y="732"/>
      <point x="295" y="732" type="curve" smooth="yes"/>
      <point x="406" y="732"/>
      <point x="493" y="716"/>
      <point x="571" y="684" type="curve"/>
    </contour>
    <contour>
      <point x="314" y="392" type="curve"/>
      <point x="314" y="454" type="line"/>
      <point x="307" y="456"/>
      <point x="302" y="457"/>
      <point x="295" y="457" type="curve" smooth="yes"/>
      <point x="287" y="457"/>
      <point x="282" y="456"/>
      <point x="275" y="454" type="curve"/>
      <point x="275" y="392" type="line"/>
      <point x="282" y="389"/>
      <point x="287" y="388"/>
      <point x="295" y="388" type="curve" smooth="yes"/>
      <point x="302" y="388"/>
      <point x="307" y="389"/>
    </contour>
  </outline>
</glyph>
<glyph name="guillemotleft" format="1">
  <advance width="877"/>
  <unicode hex="00AB"/>
  <outline>
    <contour>
      <point x="855" y="-10" type="line"/>
      <point x="450" y="130" type="line"/>
      <point x="450" y="350" type="line"/>
      <point x="855" y="490" type="line"/>
      <point x="855" y="278" type="line"/>
      <point x="710" y="240" type="line"/>
      <point x="855" y="203" type="line"/>
    </contour>
    <contour>
      <point x="421" y="-10" type="line"/>
      <point x="16" y="130" type="line"/>
      <point x="16" y="350" type="line"/>
      <point x="421" y="490" type="line"/>
      <point x="421" y="278" type="line"/>
      <point x="276" y="240" type="line"/>
      <point x="421" y="203" type="line"/>
    </contour>
  </outline>
</glyph>
<glyph name="macron" format="1">
  <advance width="650"/>
  <unicode hex="00AF"/>
  <unicode hex="02C9"/>
  <outline>
    <contour>
      <point x="595" y="525" type="line"/>
      <point x="55" y="525" type="line"/>
      <point x="55" y="720" type="line"/>
      <point x="595" y="720" type="line"/>
    </contour>
  </outline>
</glyph>
<glyph name="degree" format="1">
  <advance width="612"/>
  <unicode hex="00B0"/>
  <outline>
    <contour>
      <point x="591" y="345" type="line"/>
      <point x="505" y="317"/>
      <point x="400" y="302"/>
      <point x="306" y="302" type="curve" smooth="yes"/>
      <point x="215" y="302"/>
      <point x="109" y="316"/>
      <point x="21" y="345" type="curve"/>
      <point x="21" y="692" type="line"/>
      <point x="106" y="720"/>
      <point x="213" y="735"/>
      <point x="306" y="735" type="curve" smooth="yes"/>
      <point x="398" y="735"/>
      <point x="503" y="721"/>
      <point x="591" y="692" type="curve"/>
    </contour>
    <contour>
      <point x="330" y="448" type="curve"/>
      <point x="330" y="587" type="line"/>
      <point x="323" y="589"/>
      <point x="315" y="590"/>
      <point x="306" y="590" type="curve" smooth="yes"/>
      <point x="298" y="590"/>
      <point x="290" y="589"/>
      <point x="282" y="587" type="curve"/>
      <point x="282" y="448" type="line"/>
      <point x="290" y="446"/>
      <point x="298" y="445"/>
      <point x="306" y="445" type="curve" smooth="yes"/>
      <point x="315" y="445"/>
      <point x="323" y="446"/>
    </contour>
  </outline>
</glyph>
<glyph name="acute" format="1">
  <advance width="650"/>
  <unicode hex="00B4"/>
  <outline>
    <contour>
      <point x="506" y="720" type="line"/>
      <point x="385" y="525" type="line"/>
      <point x="144" y="525" type="line"/>
      <point x="255" y="720" type="line"/>
    </contour>
  </outline>
</glyph>
<glyph name="paragraph" format="1">
  <advance width="1072"/>
  <unicode hex="00B6"/>
  <outline>
    <contour>
      <point x="1045" y="0" type="line"/>
      <point x="761" y="0" type="line"/>
      <point x="761" y="538" type="line"/>
      <point x="701" y="538" type="line"/>
      <point x="701" y="0" type="line"/>
      <point x="417" y="0" type="line"/>
      <point x="417" y="191" type="line"/>
      <point x="408" y="191" type="line" smooth="yes"/>
      <point x="260" y="191"/>
      <point x="111" y="217"/>
      <point x="12" y="261" type="curve"/>
      <point x="12" y="651" type="line"/>
      <point x="113" y="696"/>
      <point x="261" y="720"/>
      <point x="408" y="720" type="curve" smooth="yes"/>
      <point x="1045" y="720" type="line"/>
    </contour>
    <contour>
      <point x="422" y="374" type="line"/>
      <point x="422" y="538" type="line"/>
      <point x="387" y="538" type="line" smooth="yes"/>
      <point x="373" y="538"/>
      <point x="363" y="536"/>
      <point x="352" y="532" type="curve"/>
      <point x="352" y="379" type="line"/>
      <point x="363" y="375"/>
      <point x="373" y="374"/>
      <point x="387" y="374" type="curve" smooth="yes"/>
    </contour>
  </outline>
</glyph>
<glyph name="periodcentered" format="1">
  <advance width="354"/>
  <unicode hex="00B7"/>
  <unicode hex="2219"/>
  <outline>
    <contour>
      <point x="337" y="170" type="line"/>
      <point x="17" y="170" type="line"/>
      <point x="17" y="417" type="line"/>
      <point x="337" y="417" type="line"/>
    </contour>
  </outline>
</glyph>
<glyph name="cedilla" format="1">
  <advance width="650"/>
  <unicode hex="00B8"/>
  <outline>
    <contour>
      <point x="431" y="-140" type="line"/>
      <point x="348" y="-167"/>
      <point x="262" y="-180"/>
      <point x="159" y="-180" type="curve" smooth="yes"/>
      <point x="144" y="-180" type="line"/>
      <point x="144" y="-42" type="line"/>
      <point x="174" y="-42" type="line" smooth="yes"/>
      <point x="190" y="-42"/>
      <point x="207" y="-42"/>
      <point x="219" y="-39" type="curve"/>
      <point x="219" y="10" type="line"/>
      <point x="431" y="10" type="line"/>
    </contour>
  </outline>
</glyph>
<glyph name="ordmasculine" format="1">
  <advance width="590"/>
  <unicode hex="00BA"/>
  <outline>
    <contour>
      <point x="571" y="326" type="line"/>
      <point x="494" y="296"/>
      <point x="408" y="278"/>
      <point x="295" y="278" type="curve" smooth="yes"/>
      <point x="183" y="278"/>
      <point x="96" y="295"/>
      <point x="19" y="326" type="curve"/>
      <point x="19" y="684" type="line"/>
      <point x="96" y="715"/>
      <point x="181" y="732"/>
      <point x="295" y="732" type="curve" smooth="yes"/>
      <point x="407" y="732"/>
      <point x="492" y="716"/>
      <point x="571" y="684" type="curve"/>
    </contour>
    <contour>
      <point x="314" y="425" type="curve"/>
      <point x="314" y="585" type="line"/>
      <point x="307" y="587"/>
      <point x="302" y="588"/>
      <point x="295" y="588" type="curve" smooth="yes"/>
      <point x="287" y="588"/>
      <point x="282" y="587"/>
      <point x="275" y="585" type="curve"/>
      <point x="275" y="425" type="line"/>
      <point x="282" y="423"/>
      <point x="287" y="422"/>
      <point x="295" y="422" type="curve" smooth="yes"/>
      <point x="302" y="422"/>
      <point x="307" y="423"/>
    </contour>
  </outline>
</glyph>
<glyph name="questiondown" format="1">
  <advance width="774"/>
  <unicode hex="00BF"/>
  <outline>
    <contour>
      <point x="558" y="511" type="line"/>
      <point x="211" y="511" type="line"/>
      <point x="211" y="720" type="line"/>
      <point x="558" y="720" type="line"/>
    </contour>
    <contour>
      <point x="758" y="46" type="line"/>
      <point x="653" y="5"/>
      <point x="529" y="-15"/>
      <point x="388" y="-15" type="curve" smooth="yes"/>
      <point x="245" y="-15"/>
      <point x="121" y="6"/>
      <point x="17" y="46" type="curve"/>
      <point x="17" y="383" type="line"/>
      <point x="211" y="448" type="line"/>
      <point x="211" y="486" type="line"/>
      <point x="558" y="486" type="line"/>
      <point x="558" y="313" type="line"/>
      <point x="361" y="247" type="line"/>
      <point x="361" y="185" type="line"/>
      <point x="374" y="183"/>
      <point x="381" y="182"/>
      <point x="393" y="182" type="curve" smooth="yes"/>
      <point x="406" y="182"/>
      <point x="416" y="183"/>
      <point x="428" y="185" type="curve"/>
      <point x="428" y="261" type="line"/>
      <point x="758" y="261" type="line"/>
    </contour>
  </outline>
</glyph>
<glyph name="Aring" format="1">
  <advance width="842"/>
  <unicode hex="00C5"/>
  <outline>
    <contour>
      <point x="816" y="0" type="line"/>
      <point x="456" y="0" type="line"/>
      <point x="456" y="187" type="line"/>
      <point x="386" y="187" type="line"/>
      <point x="386" y="0" type="line"/>
      <point x="27" y="0" type="line"/>
      <point x="27" y="674" type="line"/>
      <point x="130" y="714"/>
      <point x="280" y="735"/>
      <point x="422" y="735" type="curve" smooth="yes"/>
      <point x="563" y="735"/>
      <point x="710" y="715"/>
      <point x="816" y="674" type="curve"/>
    </contour>
    <contour>
      <point x="456" y="377" type="line"/>
      <point x="456" y="542" type="line"/>
      <point x="444" y="545"/>
      <point x="433" y="545"/>
      <point x="421" y="545" type="curve" smooth="yes"/>
      <point x="409" y="545"/>
      <point x="399" y="545"/>
      <point x="386" y="542" type="curve"/>
      <point x="386" y="377" type="line"/>
    </contour>
    <contour>
      <point x="679" y="787" type="line"/>
      <point x="607" y="767"/>
      <point x="528" y="755"/>
      <point x="421" y="755" type="curve" smooth="yes"/>
      <point x="315" y="755"/>
      <point x="236" y="766"/>
      <point x="163" y="787" type="curve"/>
      <point x="163" y="975" type="line"/>
      <point x="236" y="996"/>
      <point x="315" y="1007"/>
      <point x="421" y="1007" type="curve" smooth="yes"/>
      <point x="528" y="1007"/>
      <point x="607" y="995"/>
      <point x="679" y="975" type="curve"/>
    </contour>
    <contour>
      <point x="453" y="855" type="curve"/>
      <point x="453" y="907" type="line"/>
      <point x="443" y="909"/>
      <point x="434" y="910"/>
      <point x="422" y="910" type="curve" smooth="yes"/>
      <point x="408" y="910"/>
      <point x="399" y="909"/>
      <point x="389" y="907" type="curve"/>
      <point x="389" y="855" type="line"/>
      <point x="399" y="853"/>
      <point x="408" y="852"/>
      <point x="422" y="852" type="curve" smooth="yes"/>
      <point x="434" y="852"/>
      <point x="443" y="853"/>
    </contour>
  </outline>
</glyph>
<glyph name="AE" format="1">
  <advance width="1271"/>
  <unicode hex="00C6"/>
  <outline>
    <contour>
      <point x="1245" y="46" type="line"/>
      <point x="1142" y="6"/>
      <point x="995" y="-15"/>
      <point x="852" y="-15" type="curve" smooth="yes"/>
      <point x="711" y="-15"/>
      <point x="561" y="6"/>
      <point x="456" y="46" type="curve"/>
      <point x="456" y="187" type="line"/>
      <point x="386" y="187" type="line"/>
      <point x="386" y="0" type="line"/>
      <point x="27" y="0" type="line"/>
      <point x="27" y="674" type="line"/>
      <point x="130" y="714"/>
      <point x="280" y="735"/>
      <point x="422" y="735" type="curve" smooth="yes"/>
      <point x="494" y="735"/>
      <point x="583" y="725"/>
      <point x="637" y="709" type="curve"/>
      <point x="691" y="725"/>
      <point x="780" y="735"/>
      <point x="852" y="735" type="curve" smooth="yes"/>
      <point x="993" y="735"/>
      <point x="1140" y="715"/>
      <point x="1245" y="674" type="curve"/>
      <point x="1245" y="481" type="line"/>
      <point x="885" y="481" type="line"/>
      <point x="885" y="542" type="line"/>
      <point x="872" y="545"/>
      <point x="863" y="545"/>
      <point x="851" y="545" type="curve" smooth="yes"/>
      <point x="839" y="545"/>
      <point x="831" y="545"/>
      <point x="817" y="542" type="curve"/>
      <point x="817" y="456" type="line"/>
      <point x="1217" y="456" type="line"/>
      <point x="1217" y="264" type="line"/>
      <point x="817" y="264" type="line"/>
      <point x="817" y="178" type="line"/>
      <point x="830" y="176"/>
      <point x="839" y="175"/>
      <point x="851" y="175" type="curve" smooth="yes"/>
      <point x="863" y="175"/>
      <point x="872" y="176"/>
      <point x="885" y="178" type="curve"/>
      <point x="885" y="239" type="line"/>
      <point x="1245" y="239" type="line"/>
    </contour>
    <contour>
      <point x="456" y="377" type="line"/>
      <point x="456" y="542" type="line"/>
      <point x="444" y="545"/>
      <point x="433" y="545"/>
      <point x="421" y="545" type="curve" smooth="yes"/>
      <point x="409" y="545"/>
      <point x="399" y="545"/>
      <point x="386" y="542" type="curve"/>
      <point x="386" y="377" type="line"/>
    </contour>
  </outline>
</glyph>
<glyph name="Ccedilla" format="1">
  <advance width="840"/>
  <unicode hex="00C7"/>
  <outline>
    <contour>
      <point x="814" y="46" type="line"/>
      <point x="735" y="15"/>
      <point x="630" y="-4"/>
      <point x="521" y="-11" type="curve"/>
      <point x="521" y="-140" type="line"/>
      <point x="438" y="-167"/>
      <point x="352" y="-180"/>
      <point x="249" y="-180" type="curve" smooth="yes"/>
      <point x="234" y="-180" type="line"/>
      <point x="234" y="-42" type="line"/>
      <point x="264" y="-42" type="line" smooth="yes"/>
      <point x="280" y="-42"/>
      <point x="297" y="-42"/>
      <point x="309" y="-39" type="curve"/>
      <point x="309" y="-11" type="line"/>
      <point x="204" y="-3"/>
      <point x="102" y="16"/>
      <point x="25" y="46" type="curve"/>
      <point x="25" y="674" type="line"/>
      <point x="129" y="714"/>
      <point x="279" y="735"/>
      <point x="421" y="735" type="curve" smooth="yes"/>
      <point x="562" y="735"/>
      <point x="709" y="715"/>
      <point x="814" y="674" type="curve"/>
      <point x="814" y="401" type="line"/>
      <point x="454" y="401" type="line"/>
      <point x="454" y="527" type="line"/>
      <point x="441" y="530"/>
      <point x="432" y="530"/>
      <point x="420" y="530" type="curve" smooth="yes"/>
      <point x="408" y="530"/>
      <point x="400" y="530"/>
      <point x="386" y="527" type="curve"/>
      <point x="386" y="193" type="line"/>
      <point x="399" y="191"/>
      <point x="408" y="190"/>
      <point x="420" y="190" type="curve" smooth="yes"/>
      <point x="432" y="190"/>
      <point x="441" y="191"/>
      <point x="454" y="193" type="curve"/>
      <point x="454" y="319" type="line"/>
      <point x="814" y="319" type="line"/>
    </contour>
  </outline>
</glyph>
<glyph name="Eth" format="1">
  <advance width="861"/>
  <unicode hex="00D0"/>
  <outline>
    <contour>
      <point x="836" y="74" type="line"/>
      <point x="730" y="25"/>
      <point x="580" y="0"/>
      <point x="440" y="0" type="curve" smooth="yes"/>
      <point x="47" y="0" type="line"/>
      <point x="47" y="268" type="line"/>
      <point x="7" y="268" type="line"/>
      <point x="7" y="468" type="line"/>
      <point x="47" y="468" type="line"/>
      <point x="47" y="720" type="line"/>
      <point x="440" y="720" type="line" smooth="yes"/>
      <point x="579" y="720"/>
      <point x="728" y="696"/>
      <point x="836" y="647" type="curve"/>
    </contour>
    <contour>
      <point x="475" y="203" type="curve"/>
      <point x="475" y="517" type="line"/>
      <point x="464" y="521"/>
      <point x="454" y="523"/>
      <point x="440" y="523" type="curve" smooth="yes"/>
      <point x="398" y="523" type="line"/>
      <point x="398" y="468" type="line"/>
      <point x="438" y="468" type="line"/>
      <point x="438" y="268" type="line"/>
      <point x="398" y="268" type="line"/>
      <point x="398" y="197" type="line"/>
      <point x="440" y="197" type="line" smooth="yes"/>
      <point x="454" y="197"/>
      <point x="464" y="199"/>
    </contour>
  </outline>
</glyph>
<glyph name="Oslash" format="1">
  <advance width="842"/>
  <unicode hex="00D8"/>
  <outline>
    <contour>
      <point x="814" y="46" type="line"/>
      <point x="711" y="6"/>
      <point x="564" y="-14"/>
      <point x="421" y="-15" type="curve" smooth="yes"/>
      <point x="419" y="-15"/>
      <point x="417" y="-15"/>
      <point x="415" y="-15" type="curve"/>
      <point x="388" y="-70" type="line"/>
      <point x="25" y="-70" type="line"/>
      <point x="74" y="29" type="line"/>
      <point x="57" y="35"/>
      <point x="41" y="40"/>
      <point x="25" y="46" type="curve"/>
      <point x="25" y="674" type="line"/>
      <point x="129" y="714"/>
      <point x="279" y="735"/>
      <point x="421" y="735" type="curve" smooth="yes"/>
      <point x="422" y="735"/>
      <point x="423" y="735"/>
      <point x="425" y="735" type="curve"/>
      <point x="452" y="790" type="line"/>
      <point x="814" y="790" type="line"/>
      <point x="765" y="691" type="line"/>
      <point x="782" y="686"/>
      <point x="799" y="680"/>
      <point x="814" y="674" type="curve"/>
    </contour>
    <contour>
      <point x="454" y="193" type="curve"/>
      <point x="454" y="527" type="line"/>
      <point x="441" y="530"/>
      <point x="432" y="530"/>
      <point x="420" y="530" type="curve" smooth="yes"/>
      <point x="408" y="530"/>
      <point x="399" y="530"/>
      <point x="386" y="527" type="curve"/>
      <point x="386" y="193" type="line"/>
      <point x="399" y="191"/>
      <point x="408" y="190"/>
      <point x="420" y="190" type="curve" smooth="yes"/>
      <point x="432" y="190"/>
      <point x="441" y="191"/>
    </contour>
  </outline>
</glyph>
<glyph name="Thorn" format="1">
  <advance width="828"/>
  <unicode hex="00DE"/>
  <outline>
    <contour>
      <point x="816" y="170" type="line"/>
      <point x="717" y="126"/>
      <point x="568" y="100"/>
      <point x="420" y="100" type="curve" smooth="yes"/>
      <point x="391" y="100" type="line"/>
      <point x="391" y="0" type="line"/>
      <point x="27" y="0" type="line"/>
      <point x="27" y="720" type="line"/>
      <point x="386" y="720" type="line"/>
      <point x="386" y="629" type="line"/>
      <point x="420" y="629" type="line" smooth="yes"/>
      <point x="567" y="629"/>
      <point x="715" y="605"/>
      <point x="816" y="560" type="curve"/>
    </contour>
    <contour>
      <point x="456" y="288" type="curve"/>
      <point x="456" y="441" type="line"/>
      <point x="445" y="445"/>
      <point x="435" y="447"/>
      <point x="421" y="447" type="curve" smooth="yes"/>
      <point x="386" y="447" type="line"/>
      <point x="386" y="283" type="line"/>
      <point x="421" y="283" type="line" smooth="yes"/>
      <point x="435" y="283"/>
      <point x="445" y="284"/>
    </contour>
  </outline>
</glyph>
<glyph name="germandbls" format="1">
  <advance width="659"/>
  <unicode hex="00DF"/>
  <outline>
    <contour>
      <point x="640" y="40" type="line"/>
      <point x="557" y="13"/>
      <point x="411" y="0"/>
      <point x="326" y="0" type="curve"/>
      <point x="326" y="178" type="line"/>
      <point x="334" y="178"/>
      <point x="342" y="179"/>
      <point x="350" y="181" type="curve"/>
      <point x="350" y="254" type="line"/>
      <point x="343" y="256"/>
      <point x="337" y="257"/>
      <point x="329" y="257" type="curve" smooth="yes"/>
      <point x="307" y="257" type="line"/>
      <point x="307" y="0" type="line"/>
      <point x="20" y="0" type="line"/>
      <point x="20" y="681" type="line"/>
      <point x="106" y="716"/>
      <point x="201" y="735"/>
      <point x="329" y="735" type="curve" smooth="yes"/>
      <point x="455" y="735"/>
      <point x="551" y="717"/>
      <point x="639" y="681" type="curve"/>
      <point x="639" y="384" type="line"/>
      <point x="614" y="373"/>
      <point x="559" y="360"/>
      <point x="501" y="353" type="curve"/>
      <point x="558" y="347"/>
      <point x="612" y="334"/>
      <point x="640" y="321" type="curve"/>
    </contour>
    <contour>
      <point x="350" y="452" type="curve"/>
      <point x="350" y="570" type="line"/>
      <point x="343" y="572"/>
      <point x="337" y="573"/>
      <point x="329" y="573" type="curve" smooth="yes"/>
      <point x="320" y="573"/>
      <point x="314" y="572"/>
      <point x="307" y="570" type="curve"/>
      <point x="307" y="449" type="line"/>
      <point x="329" y="449" type="line" smooth="yes"/>
      <point x="339" y="449"/>
      <point x="344" y="450"/>
    </contour>
  </outline>
</glyph>
<glyph name="ae" format="1">
  <advance width="988"/>
  <unicode hex="00E6"/>
  <outline>
    <contour>
      <point x="970" y="39" type="line"/>
      <point x="884" y="5"/>
      <point x="787" y="-15"/>
      <point x="660" y="-15" type="curve" smooth="yes"/>
      <point x="599" y="-15"/>
      <point x="545" y="-6"/>
      <point x="495" y="3" type="curve"/>
      <point x="446" y="-6"/>
      <point x="391" y="-15"/>
      <point x="329" y="-15" type="curve" smooth="yes"/>
      <point x="203" y="-15"/>
      <point x="106" y="3"/>
      <point x="19" y="39" type="curve"/>
      <point x="19" y="282" type="line"/>
      <point x="91" y="295"/>
      <point x="168" y="300"/>
      <point x="286" y="300" type="curve" smooth="yes"/>
      <point x="314" y="300"/>
      <point x="338" y="299"/>
      <point x="350" y="298" type="curve"/>
      <point x="350" y="359" type="line"/>
      <point x="343" y="362"/>
      <point x="337" y="363"/>
      <point x="329" y="363" type="curve" smooth="yes"/>
      <point x="320" y="363"/>
      <point x="314" y="362"/>
      <point x="307" y="359" type="curve"/>
      <point x="307" y="318" type="line"/>
      <point x="19" y="318" type="line"/>
      <point x="19" y="441" type="line"/>
      <point x="105" y="476"/>
      <point x="201" y="495"/>
      <point x="329" y="495" type="curve" smooth="yes"/>
      <point x="390" y="495"/>
      <point x="445" y="486"/>
      <point x="494" y="477" type="curve"/>
      <point x="544" y="486"/>
      <point x="598" y="495"/>
      <point x="660" y="495" type="curve" smooth="yes"/>
      <point x="786" y="495"/>
      <point x="882" y="477"/>
      <point x="970" y="441" type="curve"/>
      <point x="970" y="182" type="line"/>
      <point x="638" y="182" type="line"/>
      <point x="638" y="121" type="line"/>
      <point x="645" y="118"/>
      <point x="651" y="117"/>
      <point x="660" y="117" type="curve" smooth="yes"/>
      <point x="668" y="117"/>
      <point x="674" y="118"/>
      <point x="681" y="121" type="curve"/>
      <point x="681" y="162" type="line"/>
      <point x="970" y="162" type="line"/>
    </contour>
    <contour>
      <point x="681" y="294" type="line"/>
      <point x="681" y="365" type="line"/>
      <point x="674" y="367"/>
      <point x="668" y="368"/>
      <point x="660" y="368" type="curve" smooth="yes"/>
      <point x="651" y="368"/>
      <point x="645" y="367"/>
      <point x="638" y="365" type="curve"/>
      <point x="638" y="294" type="line"/>
    </contour>
    <contour>
      <point x="350" y="113" type="curve"/>
      <point x="350" y="183" type="line"/>
      <point x="343" y="185"/>
      <point x="337" y="186"/>
      <point x="329" y="186" type="curve" smooth="yes"/>
      <point x="320" y="186"/>
      <point x="314" y="185"/>
      <point x="307" y="183" type="curve"/>
      <point x="307" y="113" type="line"/>
      <point x="314" y="110"/>
      <point x="320" y="109"/>
      <point x="329" y="109" type="curve" smooth="yes"/>
      <point x="337" y="109"/>
      <point x="343" y="110"/>
    </contour>
  </outline>
</glyph>
<glyph name="ccedilla" format="1">
  <advance width="657"/>
  <unicode hex="00E7"/>
  <outline>
    <contour>
      <point x="639" y="39" type="line"/>
      <point x="578" y="15"/>
      <point x="512" y="-2"/>
      <point x="434" y="-10" type="curve"/>
      <point x="434" y="-140" type="line"/>
      <point x="351" y="-167"/>
      <point x="265" y="-180"/>
      <point x="162" y="-180" type="curve" smooth="yes"/>
      <point x="147" y="-180" type="line"/>
      <point x="147" y="-42" type="line"/>
      <point x="177" y="-42" type="line" smooth="yes"/>
      <point x="193" y="-42"/>
      <point x="210" y="-42"/>
      <point x="222" y="-39" type="curve"/>
      <point x="222" y="-10" type="line"/>
      <point x="145" y="-2"/>
      <point x="80" y="15"/>
      <point x="19" y="39" type="curve"/>
      <point x="19" y="441" type="line"/>
      <point x="105" y="476"/>
      <point x="201" y="495"/>
      <point x="329" y="495" type="curve" smooth="yes"/>
      <point x="455" y="495"/>
      <point x="551" y="477"/>
      <point x="639" y="441" type="curve"/>
      <point x="639" y="255" type="line"/>
      <point x="350" y="255" type="line"/>
      <point x="350" y="330" type="line"/>
      <point x="343" y="332"/>
      <point x="337" y="333"/>
      <point x="329" y="333" type="curve" smooth="yes"/>
      <point x="320" y="333"/>
      <point x="314" y="332"/>
      <point x="307" y="330" type="curve"/>
      <point x="307" y="150" type="line"/>
      <point x="314" y="148"/>
      <point x="320" y="147"/>
      <point x="329" y="147" type="curve" smooth="yes"/>
      <point x="337" y="147"/>
      <point x="343" y="148"/>
      <point x="350" y="150" type="curve"/>
      <point x="350" y="225" type="line"/>
      <point x="639" y="225" type="line"/>
    </contour>
  </outline>
</glyph>
<glyph name="eth" format="1">
  <advance width="659"/>
  <unicode hex="00F0"/>
  <outline>
    <contour>
      <point x="639" y="39" type="line"/>
      <point x="551" y="4"/>
      <point x="454" y="-15"/>
      <point x="329" y="-15" type="curve" smooth="yes"/>
      <point x="201" y="-15"/>
      <point x="105" y="5"/>
      <point x="19" y="39" type="curve"/>
      <point x="19" y="436" type="line"/>
      <point x="92" y="474"/>
      <point x="176" y="490"/>
      <point x="264" y="490" type="curve" smooth="yes"/>
      <point x="301" y="490"/>
      <point x="330" y="486"/>
      <point x="349" y="483" type="curve"/>
      <point x="349" y="521" type="line"/>
      <point x="195" y="521" type="line"/>
      <point x="195" y="684" type="line"/>
      <point x="349" y="684" type="line"/>
      <point x="349" y="720" type="line"/>
      <point x="639" y="720" type="line"/>
      <point x="639" y="684" type="line"/>
      <point x="639" y="684" type="line"/>
      <point x="639" y="521" type="line"/>
      <point x="639" y="521" type="line"/>
    </contour>
    <contour>
      <point x="350" y="150" type="curve"/>
      <point x="350" y="325" type="line"/>
      <point x="343" y="327"/>
      <point x="337" y="328"/>
      <point x="329" y="328" type="curve" smooth="yes"/>
      <point x="320" y="328"/>
      <point x="315" y="327"/>
      <point x="307" y="325" type="curve"/>
      <point x="307" y="150" type="line"/>
      <point x="315" y="148"/>
      <point x="320" y="147"/>
      <point x="329" y="147" type="curve" smooth="yes"/>
      <point x="337" y="147"/>
      <point x="343" y="148"/>
    </contour>
  </outline>
</glyph>
<glyph name="oslash" format="1">
  <advance width="657"/>
  <unicode hex="00F8"/>
  <outline>
    <contour>
      <point x="639" y="39" type="line"/>
      <point x="564" y="9"/>
      <point x="481" y="-10"/>
      <point x="377" y="-14" type="curve"/>
      <point x="377" y="-14" type="line"/>
      <point x="356" y="-70" type="line"/>
      <point x="19" y="-70" type="line"/>
      <point x="56" y="25" type="line"/>
      <point x="43" y="30"/>
      <point x="31" y="34"/>
      <point x="19" y="39" type="curve"/>
      <point x="19" y="441" type="line"/>
      <point x="94" y="472"/>
      <point x="177" y="490"/>
      <point x="281" y="494" type="curve"/>
      <point x="281" y="494" type="line"/>
      <point x="303" y="550" type="line"/>
      <point x="639" y="550" type="line"/>
      <point x="603" y="455" type="line"/>
      <point x="615" y="450"/>
      <point x="627" y="446"/>
      <point x="639" y="441" type="curve"/>
    </contour>
    <contour>
      <point x="350" y="150" type="curve"/>
      <point x="350" y="330" type="line"/>
      <point x="343" y="332"/>
      <point x="337" y="333"/>
      <point x="329" y="333" type="curve" smooth="yes"/>
      <point x="320" y="333"/>
      <point x="314" y="332"/>
      <point x="307" y="330" type="curve"/>
      <point x="307" y="150" type="line"/>
      <point x="314" y="148"/>
      <point x="320" y="147"/>
      <point x="329" y="147" type="curve" smooth="yes"/>
      <point x="337" y="147"/>
      <point x="343" y="148"/>
    </contour>
  </outline>
</glyph>
<glyph name="thorn" format="1">
  <advance width="659"/>
  <unicode hex="00FE"/>
  <outline>
    <contour>
      <point x="640" y="44" type="line"/>
      <point x="566" y="6"/>
      <point x="482" y="-10"/>
      <point x="395" y="-10" type="curve" smooth="yes"/>
      <point x="357" y="-10"/>
      <point x="329" y="-6"/>
      <point x="310" y="-3" type="curve"/>
      <point x="310" y="-175" type="line"/>
      <point x="20" y="-175" type="line"/>
      <point x="20" y="720" type="line"/>
      <point x="310" y="720" type="line"/>
      <point x="310" y="483" type="line"/>
      <point x="329" y="486"/>
      <point x="357" y="490"/>
      <point x="395" y="490" type="curve" smooth="yes"/>
      <point x="482" y="490"/>
      <point x="566" y="474"/>
      <point x="640" y="436" type="curve"/>
    </contour>
    <contour>
      <point x="352" y="155" type="curve"/>
      <point x="352" y="325" type="line"/>
      <point x="344" y="327"/>
      <point x="339" y="328"/>
      <point x="330" y="328" type="curve" smooth="yes"/>
      <point x="321" y="328"/>
      <point x="316" y="327"/>
      <point x="308" y="325" type="curve"/>
      <point x="308" y="155" type="line"/>
      <point x="316" y="153"/>
      <point x="321" y="152"/>
      <point x="330" y="152" type="curve" smooth="yes"/>
      <point x="339" y="152"/>
      <point x="344" y="153"/>
    </contour>
  </outline>
</glyph>
<glyph name="Lslash" format="1">
  <advance width="652"/>
  <unicode hex="0141"/>
  <outline>
    <contour>
      <point x="633" y="0" type="line"/>
      <point x="47" y="0" type="line"/>
      <point x="47" y="250" type="line"/>
      <point x="7" y="240" type="line"/>
      <point x="7" y="459" type="line"/>
      <point x="47" y="469" type="line"/>
      <point x="47" y="720" type="line"/>
      <point x="401" y="720" type="line"/>
      <point x="401" y="557" type="line"/>
      <point x="491" y="579" type="line"/>
      <point x="491" y="360" type="line"/>
      <point x="401" y="338" type="line"/>
      <point x="401" y="235" type="line"/>
      <point x="633" y="235" type="line"/>
    </contour>
  </outline>
</glyph>
<glyph name="lslash" format="1">
  <advance width="372"/>
  <unicode hex="0142"/>
  <outline>
    <contour>
      <point x="365" y="299" type="line"/>
      <point x="332" y="291" type="line"/>
      <point x="332" y="0" type="line"/>
      <point x="40" y="0" type="line"/>
      <point x="40" y="218" type="line"/>
      <point x="7" y="210" type="line"/>
      <point x="7" y="429" type="line"/>
      <point x="40" y="437" type="line"/>
      <point x="40" y="720" type="line"/>
      <point x="332" y="720" type="line"/>
      <point x="332" y="510" type="line"/>
      <point x="365" y="518" type="line"/>
    </contour>
  </outline>
</glyph>
<glyph name="OE" format="1">
  <advance width="1269"/>
  <unicode hex="0152"/>
  <outline>
    <contour>
      <point x="1243" y="46" type="line"/>
      <point x="1140" y="6"/>
      <point x="993" y="-15"/>
      <point x="850" y="-15" type="curve" smooth="yes"/>
      <point x="778" y="-15"/>
      <point x="688" y="-5"/>
      <point x="634" y="11" type="curve"/>
      <point x="580" y="-5"/>
      <point x="493" y="-15"/>
      <point x="421" y="-15" type="curve" smooth="yes"/>
      <point x="280" y="-16"/>
      <point x="130" y="6"/>
      <point x="25" y="46" type="curve"/>
      <point x="25" y="674" type="line"/>
      <point x="129" y="714"/>
      <point x="279" y="735"/>
      <point x="421" y="735" type="curve" smooth="yes"/>
      <point x="493" y="735"/>
      <point x="582" y="725"/>
      <point x="636" y="709" type="curve"/>
      <point x="690" y="725"/>
      <point x="778" y="735"/>
      <point x="850" y="735" type="curve" smooth="yes"/>
      <point x="991" y="735"/>
      <point x="1138" y="715"/>
      <point x="1243" y="674" type="curve"/>
      <point x="1243" y="481" type="line"/>
      <point x="883" y="481" type="line"/>
      <point x="883" y="542" type="line"/>
      <point x="870" y="545"/>
      <point x="861" y="545"/>
      <point x="849" y="545" type="curve" smooth="yes"/>
      <point x="837" y="545"/>
      <point x="829" y="545"/>
      <point x="815" y="542" type="curve"/>
      <point x="815" y="456" type="line"/>
      <point x="1215" y="456" type="line"/>
      <point x="1215" y="264" type="line"/>
      <point x="815" y="264" type="line"/>
      <point x="815" y="178" type="line"/>
      <point x="828" y="176"/>
      <point x="837" y="175"/>
      <point x="849" y="175" type="curve" smooth="yes"/>
      <point x="861" y="175"/>
      <point x="870" y="176"/>
      <point x="883" y="178" type="curve"/>
      <point x="883" y="239" type="line"/>
      <point x="1243" y="239" type="line"/>
    </contour>
    <contour>
      <point x="454" y="193" type="curve"/>
      <point x="454" y="527" type="line"/>
      <point x="441" y="530"/>
      <point x="432" y="530"/>
      <point x="420" y="530" type="curve" smooth="yes"/>
      <point x="408" y="530"/>
      <point x="399" y="530"/>
      <point x="386" y="527" type="curve"/>
      <point x="386" y="193" type="line"/>
      <point x="399" y="191"/>
      <point x="408" y="190"/>
      <point x="420" y="190" type="curve" smooth="yes"/>
      <point x="432" y="190"/>
      <point x="441" y="191"/>
    </contour>
  </outline>
</glyph>
<glyph name="oe" format="1">
  <advance width="988"/>
  <unicode hex="0153"/>
  <outline>
    <contour>
      <point x="970" y="39" type="line"/>
      <point x="884" y="5"/>
      <point x="787" y="-15"/>
      <point x="660" y="-15" type="curve" smooth="yes"/>
      <point x="599" y="-15"/>
      <point x="544" y="-5"/>
      <point x="494" y="3" type="curve"/>
      <point x="444" y="-5"/>
      <point x="390" y="-15"/>
      <point x="329" y="-15" type="curve" smooth="yes"/>
      <point x="203" y="-15"/>
      <point x="106" y="4"/>
      <point x="19" y="39" type="curve"/>
      <point x="19" y="441" type="line"/>
      <point x="105" y="476"/>
      <point x="201" y="495"/>
      <point x="329" y="495" type="curve" smooth="yes"/>
      <point x="391" y="495"/>
      <point x="445" y="486"/>
      <point x="495" y="477" type="curve"/>
      <point x="544" y="486"/>
      <point x="598" y="495"/>
      <point x="660" y="495" type="curve" smooth="yes"/>
      <point x="786" y="495"/>
      <point x="882" y="477"/>
      <point x="970" y="441" type="curve"/>
      <point x="970" y="182" type="line"/>
      <point x="638" y="182" type="line"/>
      <point x="638" y="121" type="line"/>
      <point x="645" y="118"/>
      <point x="651" y="117"/>
      <point x="660" y="117" type="curve" smooth="yes"/>
      <point x="668" y="117"/>
      <point x="674" y="118"/>
      <point x="681" y="121" type="curve"/>
      <point x="681" y="162" type="line"/>
      <point x="970" y="162" type="line"/>
    </contour>
    <contour>
      <point x="681" y="294" type="line"/>
      <point x="681" y="365" type="line"/>
      <point x="674" y="367"/>
      <point x="668" y="368"/>
      <point x="660" y="368" type="curve" smooth="yes"/>
      <point x="651" y="368"/>
      <point x="645" y="367"/>
      <point x="638" y="365" type="curve"/>
      <point x="638" y="294" type="line"/>
    </contour>
    <contour>
      <point x="350" y="150" type="curve"/>
      <point x="350" y="330" type="line"/>
      <point x="343" y="332"/>
      <point x="337" y="333"/>
      <point x="329" y="333" type="curve" smooth="yes"/>
      <point x="320" y="333"/>
      <point x="314" y="332"/>
      <point x="307" y="330" type="curve"/>
      <point x="307" y="150" type="line"/>
      <point x="314" y="148"/>
      <point x="320" y="147"/>
      <point x="329" y="147" type="curve" smooth="yes"/>
      <point x="337" y="147"/>
      <point x="343" y="148"/>
    </contour>
  </outline>
</glyph>
<glyph name="florin" format="1">
  <advance width="436"/>
  <unicode hex="0192"/>
  <outline>
    <contour>
      <point x="425" y="549" type="line"/>
      <point x="383" y="549" type="line" smooth="yes"/>
      <point x="366" y="549"/>
      <point x="350" y="549"/>
      <point x="337" y="546" type="curve"/>
      <point x="337" y="480" type="line"/>
      <point x="417" y="480" type="line"/>
      <point x="417" y="299" type="line"/>
      <point x="337" y="299" type="line"/>
      <point x="337" y="-137" type="line"/>
      <point x="253" y="-165"/>
      <point x="168" y="-177"/>
      <point x="65" y="-177" type="curve" smooth="yes"/>
      <point x="-13" y="-177" type="line"/>
      <point x="-13" y="-4" type="line"/>
      <point x="-1" y="-4" type="line" smooth="yes"/>
      <point x="16" y="-4"/>
      <point x="32" y="-4"/>
      <point x="45" y="-1" type="curve"/>
      <point x="45" y="299" type="line"/>
      <point x="10" y="299" type="line"/>
      <point x="10" y="480" type="line"/>
      <point x="45" y="480" type="line"/>
      <point x="45" y="682" type="line"/>
      <point x="129" y="710"/>
      <point x="214" y="722"/>
      <point x="317" y="722" type="curve" smooth="yes"/>
      <point x="425" y="722" type="line"/>
    </contour>
  </outline>
</glyph>
<glyph name="circumflex" format="1">
  <advance width="650"/>
  <unicode hex="02C6"/>
  <outline>
    <contour>
      <point x="595" y="525" type="line"/>
      <point x="377" y="525" type="line"/>
      <point x="325" y="613" type="line"/>
      <point x="273" y="525" type="line"/>
      <point x="55" y="525" type="line"/>
      <point x="190" y="720" type="line"/>
      <point x="461" y="720" type="line"/>
    </contour>
  </outline>
</glyph>
<glyph name="caron" format="1">
  <advance width="650"/>
  <unicode hex="02C7"/>
  <outline>
    <contour>
      <point x="595" y="720" type="line"/>
      <point x="461" y="525" type="line"/>
      <point x="190" y="525" type="line"/>
      <point x="55" y="720" type="line"/>
      <point x="273" y="720" type="line"/>
      <point x="325" y="632" type="line"/>
      <point x="377" y="720" type="line"/>
    </contour>
  </outline>
</glyph>
<glyph name="breve" format="1">
  <advance width="650"/>
  <unicode hex="02D8"/>
  <outline>
    <contour>
      <point x="632" y="563" type="line"/>
      <point x="546" y="539"/>
      <point x="452" y="525"/>
      <point x="325" y="525" type="curve" smooth="yes"/>
      <point x="199" y="525"/>
      <point x="105" y="538"/>
      <point x="18" y="563" type="curve"/>
      <point x="18" y="720" type="line"/>
      <point x="293" y="720" type="line"/>
      <point x="293" y="665" type="line"/>
      <point x="303" y="663"/>
      <point x="312" y="662"/>
      <point x="326" y="662" type="curve" smooth="yes"/>
      <point x="338" y="662"/>
      <point x="347" y="663"/>
      <point x="357" y="665" type="curve"/>
      <point x="357" y="720" type="line"/>
      <point x="632" y="720" type="line"/>
    </contour>
  </outline>
</glyph>
<glyph name="dotaccent" format="1">
  <advance width="650"/>
  <unicode hex="02D9"/>
  <outline>
    <contour>
      <point x="451" y="525" type="line"/>
      <point x="199" y="525" type="line"/>
      <point x="199" y="720" type="line"/>
      <point x="451" y="720" type="line"/>
    </contour>
  </outline>
</glyph>
<glyph name="ring" format="1">
  <advance width="650"/>
  <unicode hex="02DA"/>
  <outline>
    <contour>
      <point x="583" y="557" type="line"/>
      <point x="511" y="537"/>
      <point x="432" y="525"/>
      <point x="325" y="525" type="curve" smooth="yes"/>
      <point x="219" y="525"/>
      <point x="140" y="536"/>
      <point x="67" y="557" type="curve"/>
      <point x="67" y="745" type="line"/>
      <point x="140" y="766"/>
      <point x="219" y="777"/>
      <point x="325" y="777" type="curve" smooth="yes"/>
      <point x="432" y="777"/>
      <point x="511" y="765"/>
      <point x="583" y="745" type="curve"/>
    </contour>
    <contour>
      <point x="357" y="625" type="curve"/>
      <point x="357" y="677" type="line"/>
      <point x="347" y="679"/>
      <point x="338" y="680"/>
      <point x="326" y="680" type="curve" smooth="yes"/>
      <point x="312" y="680"/>
      <point x="303" y="679"/>
      <point x="293" y="677" type="curve"/>
      <point x="293" y="625" type="line"/>
      <point x="303" y="623"/>
      <point x="312" y="622"/>
      <point x="326" y="622" type="curve" smooth="yes"/>
      <point x="338" y="622"/>
      <point x="347" y="623"/>
    </contour>
  </outline>
</glyph>
<glyph name="ogonek" format="1">
  <advance width="650"/>
  <unicode hex="02DB"/>
  <outline>
    <contour>
      <point x="506" y="-180" type="line"/>
      <point x="491" y="-180" type="line" smooth="yes"/>
      <point x="388" y="-180"/>
      <point x="302" y="-167"/>
      <point x="219" y="-140" type="curve"/>
      <point x="219" y="10" type="line"/>
      <point x="431" y="10" type="line"/>
      <point x="431" y="-39" type="line"/>
      <point x="443" y="-42"/>
      <point x="460" y="-42"/>
      <point x="476" y="-42" type="curve" smooth="yes"/>
      <point x="506" y="-42" type="line"/>
    </contour>
  </outline>
</glyph>
<glyph name="tilde" format="1">
  <advance width="650"/>
  <unicode hex="02DC"/>
  <outline>
    <contour>
      <point x="605" y="720" type="line"/>
      <point x="565" y="525" type="line"/>
      <point x="383" y="525" type="line"/>
      <point x="247" y="575" type="line"/>
      <point x="237" y="525" type="line"/>
      <point x="45" y="525" type="line"/>
      <point x="85" y="720" type="line"/>
      <point x="267" y="720" type="line"/>
      <point x="403" y="670" type="line"/>
      <point x="413" y="720" type="line"/>
    </contour>
  </outline>
</glyph>
<glyph name="hungarumlaut" format="1">
  <advance width="650"/>
  <unicode hex="02DD"/>
  <outline>
    <contour>
      <point x="650" y="720" type="line"/>
      <point x="529" y="525" type="line"/>
      <point x="289" y="525" type="line"/>
      <point x="404" y="720" type="line"/>
    </contour>
    <contour>
      <point x="361" y="720" type="line"/>
      <point x="246" y="525" type="line"/>
      <point x="0" y="525" type="line"/>
      <point x="111" y="720" type="line"/>
    </contour>
  </outline>
</glyph>
<glyph name="endash" format="1">
  <advance width="472"/>
  <unicode hex="2013"/>
  <outline>
    <contour>
      <point x="463" y="184" type="line"/>
      <point x="10" y="184" type="line"/>
      <point x="10" y="417" type="line"/>
      <point x="463" y="417" type="line"/>
    </contour>
  </outline>
</glyph>
<glyph name="emdash" format="1">
  <advance width="572"/>
  <unicode hex="2014"/>
  <outline>
    <contour>
      <point x="563" y="184" type="line"/>
      <point x="10" y="184" type="line"/>
      <point x="10" y="417" type="line"/>
      <point x="563" y="417" type="line"/>
    </contour>
  </outline>
</glyph>
<glyph name="quoteleft" format="1">
  <advance width="394"/>
  <unicode hex="2018"/>
  <unicode hex="02BB"/>
  <outline>
    <contour>
      <point x="381" y="381" type="line"/>
      <point x="60" y="381" type="line"/>
      <point x="13" y="720" type="line"/>
      <point x="335" y="720" type="line"/>
    </contour>
  </outline>
</glyph>
<glyph name="quoteright" format="1">
  <advance width="394"/>
  <unicode hex="2019"/>
  <unicode hex="02BC"/>
  <outline>
    <contour>
      <point x="381" y="720" type="line"/>
      <point x="334" y="381" type="line"/>
      <point x="13" y="381" type="line"/>
      <point x="59" y="720" type="line"/>
    </contour>
  </outline>
</glyph>
<glyph name="quotesinglbase" format="1">
  <advance width="394"/>
  <unicode hex="201A"/>
  <outline>
    <contour>
      <point x="376" y="247" type="line"/>
      <point x="329" y="-92" type="line"/>
      <point x="8" y="-92" type="line"/>
      <point x="54" y="247" type="line"/>
    </contour>
  </outline>
</glyph>
<glyph name="quotedblleft" format="1">
  <advance width="758"/>
  <unicode hex="201C"/>
  <outline>
    <contour>
      <point x="745" y="381" type="line"/>
      <point x="424" y="381" type="line"/>
      <point x="377" y="720" type="line"/>
      <point x="699" y="720" type="line"/>
    </contour>
    <contour>
      <point x="381" y="381" type="line"/>
      <point x="60" y="381" type="line"/>
      <point x="13" y="720" type="line"/>
      <point x="335" y="720" type="line"/>
    </contour>
  </outline>
</glyph>
<glyph name="quotedblright" format="1">
  <advance width="758"/>
  <unicode hex="201D"/>
  <outline>
    <contour>
      <point x="745" y="720" type="line"/>
      <point x="698" y="381" type="line"/>
      <point x="377" y="381" type="line"/>
      <point x="423" y="720" type="line"/>
    </contour>
    <contour>
      <point x="381" y="720" type="line"/>
      <point x="334" y="381" type="line"/>
      <point x="13" y="381" type="line"/>
      <point x="59" y="720" type="line"/>
    </contour>
  </outline>
</glyph>
<glyph name="quotedblbase" format="1">
  <advance width="758"/>
  <unicode hex="201E"/>
  <outline>
    <contour>
      <point x="740" y="247" type="line"/>
      <point x="693" y="-92" type="line"/>
      <point x="372" y="-92" type="line"/>
      <point x="418" y="247" type="line"/>
    </contour>
    <contour>
      <point x="376" y="247" type="line"/>
      <point x="329" y="-92" type="line"/>
      <point x="8" y="-92" type="line"/>
      <point x="54" y="247" type="line"/>
    </contour>
  </outline>
</glyph>
<glyph name="dagger" format="1">
  <advance width="522"/>
  <unicode hex="2020"/>
  <outline>
    <contour>
      <point x="512" y="329" type="line"/>
      <point x="427" y="329" type="line"/>
      <point x="427" y="0" type="line"/>
      <point x="95" y="0" type="line"/>
      <point x="95" y="329" type="line"/>
      <point x="10" y="329" type="line"/>
      <point x="10" y="550" type="line"/>
      <point x="95" y="550" type="line"/>
      <point x="95" y="720" type="line"/>
      <point x="427" y="720" type="line"/>
      <point x="427" y="550" type="line"/>
      <point x="512" y="550" type="line"/>
    </contour>
  </outline>
</glyph>
<glyph name="daggerdbl" format="1">
  <advance width="522"/>
  <unicode hex="2021"/>
  <outline>
    <contour>
      <point x="512" y="102" type="line"/>
      <point x="422" y="102" type="line"/>
      <point x="422" y="0" type="line"/>
      <point x="100" y="0" type="line"/>
      <point x="100" y="102" type="line"/>
      <point x="10" y="102" type="line"/>
      <point x="10" y="303" type="line"/>
      <point x="100" y="303" type="line"/>
      <point x="100" y="379" type="line"/>
      <point x="10" y="379" type="line"/>
      <point x="10" y="580" type="line"/>
      <point x="100" y="580" type="line"/>
      <point x="100" y="720" type="line"/>
      <point x="422" y="720" type="line"/>
      <point x="422" y="580" type="line"/>
      <point x="512" y="580" type="line"/>
      <point x="512" y="379" type="line"/>
      <point x="422" y="379" type="line"/>
      <point x="422" y="303" type="line"/>
      <point x="512" y="303" type="line"/>
    </contour>
  </outline>
</glyph>
<glyph name="bullet" format="1">
  <advance width="657"/>
  <unicode hex="2022"/>
  <outline>
    <contour>
      <point x="639" y="169" type="line"/>
      <point x="553" y="135"/>
      <point x="456" y="115"/>
      <point x="329" y="115" type="curve" smooth="yes"/>
      <point x="203" y="115"/>
      <point x="106" y="134"/>
      <point x="19" y="169" type="curve"/>
      <point x="19" y="571" type="line"/>
      <point x="105" y="606"/>
      <point x="201" y="625"/>
      <point x="329" y="625" type="curve" smooth="yes"/>
      <point x="455" y="625"/>
      <point x="551" y="607"/>
      <point x="639" y="571" type="curve"/>
    </contour>
  </outline>
</glyph>
<glyph name="ellipsis" format="1">
  <advance width="1062"/>
  <unicode hex="2026"/>
  <outline>
    <contour>
      <point x="1045" y="0" type="line"/>
      <point x="725" y="0" type="line"/>
      <point x="725" y="247" type="line"/>
      <point x="1045" y="247" type="line"/>
    </contour>
    <contour>
      <point x="691" y="0" type="line"/>
      <point x="371" y="0" type="line"/>
      <point x="371" y="247" type="line"/>
      <point x="691" y="247" type="line"/>
    </contour>
    <contour>
      <point x="337" y="0" type="line"/>
      <point x="17" y="0" type="line"/>
      <point x="17" y="247" type="line"/>
      <point x="337" y="247" type="line"/>
    </contour>
  </outline>
</glyph>
<glyph name="perthousand" format="1">
  <advance width="2179"/>
  <unicode hex="2030"/>
  <outline>
    <contour>
      <point x="2159" y="29" type="line"/>
      <point x="2074" y="1"/>
      <point x="1967" y="-14"/>
      <point x="1874" y="-14" type="curve" smooth="yes"/>
      <point x="1782" y="-14"/>
      <point x="1677" y="0"/>
      <point x="1589" y="29" type="curve"/>
      <point x="1589" y="376" type="line"/>
      <point x="1675" y="404"/>
      <point x="1780" y="419"/>
      <point x="1874" y="419" type="curve" smooth="yes"/>
      <point x="1965" y="419"/>
      <point x="2071" y="405"/>
      <point x="2159" y="376" type="curve"/>
    </contour>
    <contour>
      <point x="1547" y="29" type="line"/>
      <point x="1462" y="1"/>
      <point x="1355" y="-14"/>
      <point x="1262" y="-14" type="curve" smooth="yes"/>
      <point x="1170" y="-14"/>
      <point x="1065" y="0"/>
      <point x="977" y="29" type="curve"/>
      <point x="977" y="376" type="line"/>
      <point x="1063" y="404"/>
      <point x="1168" y="419"/>
      <point x="1262" y="419" type="curve" smooth="yes"/>
      <point x="1353" y="419"/>
      <point x="1459" y="405"/>
      <point x="1547" y="376" type="curve"/>
    </contour>
    <contour>
      <point x="1039" y="720" type="line"/>
      <point x="862" y="0" type="line"/>
      <point x="528" y="0" type="line"/>
      <point x="704" y="720" type="line"/>
    </contour>
    <contour>
      <point x="591" y="345" type="line"/>
      <point x="505" y="317"/>
      <point x="400" y="302"/>
      <point x="306" y="302" type="curve" smooth="yes"/>
      <point x="215" y="302"/>
      <point x="109" y="316"/>
      <point x="21" y="345" type="curve"/>
      <point x="21" y="692" type="line"/>
      <point x="106" y="720"/>
      <point x="213" y="735"/>
      <point x="306" y="735" type="curve" smooth="yes"/>
      <point x="398" y="735"/>
      <point x="503" y="721"/>
      <point x="591" y="692" type="curve"/>
    </contour>
    <contour>
      <point x="1898" y="132" type="curve"/>
      <point x="1898" y="271" type="line"/>
      <point x="1890" y="273"/>
      <point x="1882" y="274"/>
      <point x="1874" y="274" type="curve" smooth="yes"/>
      <point x="1865" y="274"/>
      <point x="1857" y="273"/>
      <point x="1850" y="271" type="curve"/>
      <point x="1850" y="132" type="line"/>
      <point x="1857" y="130"/>
      <point x="1865" y="129"/>
      <point x="1874" y="129" type="curve" smooth="yes"/>
      <point x="1882" y="129"/>
      <point x="1890" y="130"/>
    </contour>
    <contour>
      <point x="1286" y="132" type="curve"/>
      <point x="1286" y="271" type="line"/>
      <point x="1278" y="273"/>
      <point x="1270" y="274"/>
      <point x="1262" y="274" type="curve" smooth="yes"/>
      <point x="1253" y="274"/>
      <point x="1245" y="273"/>
      <point x="1238" y="271" type="curve"/>
      <point x="1238" y="132" type="line"/>
      <point x="1245" y="130"/>
      <point x="1253" y="129"/>
      <point x="1262" y="129" type="curve" smooth="yes"/>
      <point x="1270" y="129"/>
      <point x="1278" y="130"/>
    </contour>
    <contour>
      <point x="330" y="448" type="curve"/>
      <point x="330" y="587" type="line"/>
      <point x="323" y="589"/>
      <point x="315" y="590"/>
      <point x="306" y="590" type="curve" smooth="yes"/>
      <point x="298" y="590"/>
      <point x="290" y="589"/>
      <point x="282" y="587" type="curve"/>
      <point x="282" y="448" type="line"/>
      <point x="290" y="446"/>
      <point x="298" y="445"/>
      <point x="306" y="445" type="curve" smooth="yes"/>
      <point x="315" y="445"/>
      <point x="323" y="446"/>
    </contour>
  </outline>
</glyph>
<glyph name="guilsinglleft" format="1">
  <advance width="443"/>
  <unicode hex="2039"/>
  <outline>
    <contour>
      <point x="421" y="-10" type="line"/>
      <point x="16" y="130" type="line"/>
      <point x="16" y="350" type="line"/>
      <point x="421" y="490" type="line"/>
      <point x="421" y="278" type="line"/>
      <point x="276" y="240" type="line"/>
      <point x="421" y="203" type="line"/>
    </contour>
  </outline>
</glyph>
<glyph name="guilsinglright" format="1">
  <advance width="443"/>
  <unicode hex="203A"/>
  <outline>
    <contour>
      <point x="427" y="130" type="line"/>
      <point x="22" y="-10" type="line"/>
      <point x="22" y="203" type="line"/>
      <point x="167" y="240" type="line"/>
      <point x="22" y="278" type="line"/>
      <point x="22" y="490" type="line"/>
      <point x="427" y="350" type="line"/>
    </contour>
  </outline>
</glyph>
<glyph name="Euro" format="1">
  <advance width="801"/>
  <unicode hex="20AC"/>
  <outline>
    <contour>
      <point x="26" y="46" type="curve"/>
      <point x="26" y="674" type="line"/>
      <point x="130" y="714"/>
      <point x="262" y="735"/>
      <point x="406" y="735" type="curve" smooth="yes"/>
      <point x="547" y="735"/>
      <point x="677" y="715"/>
      <point x="782" y="674" type="curve"/>
      <point x="782" y="519" type="line"/>
      <point x="437" y="519" type="line"/>
      <point x="437" y="552" type="line"/>
      <point x="425" y="555"/>
      <point x="417" y="555"/>
      <point x="403" y="555" type="curve" smooth="yes"/>
      <point x="391" y="555"/>
      <point x="383" y="555"/>
      <point x="370" y="552" type="curve"/>
      <point x="370" y="498" type="line"/>
      <point x="727" y="498" type="line"/>
      <point x="727" y="370" type="line"/>
      <point x="361" y="370" type="line"/>
      <point x="361" y="349" type="line"/>
      <point x="727" y="349" type="line"/>
      <point x="727" y="222" type="line"/>
      <point x="370" y="222" type="line"/>
      <point x="370" y="168" type="line"/>
      <point x="383" y="166"/>
      <point x="391" y="165"/>
      <point x="403" y="165" type="curve" smooth="yes"/>
      <point x="417" y="165"/>
      <point x="425" y="166"/>
      <point x="437" y="168" type="curve"/>
      <point x="437" y="201" type="line"/>
      <point x="782" y="201" type="line"/>
      <point x="782" y="46" type="line"/>
      <point x="678" y="6"/>
      <point x="549" y="-15"/>
      <point x="406" y="-15" type="curve" smooth="yes"/>
      <point x="263" y="-15"/>
      <point x="131" y="6"/>
    </contour>
  </outline>
</glyph>
<glyph name="uni2117" format="1">
  <advance width="965"/>
  <unicode hex="2117"/>
  <outline>
    <contour>
      <point x="937" y="50" type="line"/>
      <point x="823" y="6"/>
      <point x="653" y="-15"/>
      <point x="483" y="-15" type="curve" smooth="yes"/>
      <point x="311" y="-15"/>
      <point x="139" y="6"/>
      <point x="25" y="50" type="curve"/>
      <point x="25" y="670" type="line"/>
      <point x="139" y="714"/>
      <point x="311" y="735"/>
      <point x="483" y="735" type="curve" smooth="yes"/>
      <point x="653" y="735"/>
      <point x="823" y="714"/>
      <point x="937" y="670" type="curve"/>
    </contour>
    <contour>
      <point x="776" y="129" type="curve"/>
      <point x="776" y="591" type="line"/>
      <point x="673" y="615"/>
      <point x="575" y="624"/>
      <point x="482" y="624" type="curve" smooth="yes"/>
      <point x="390" y="624"/>
      <point x="293" y="615"/>
      <point x="188" y="592" type="curve"/>
      <point x="188" y="128" type="line"/>
      <point x="293" y="105"/>
      <point x="390" y="96"/>
      <point x="482" y="96" type="curve" smooth="yes"/>
      <point x="575" y="96"/>
      <point x="673" y="105"/>
    </contour>
    <contour>
      <point x="719" y="300" type="line"/>
      <point x="660" y="273"/>
      <point x="572" y="258"/>
      <point x="484" y="258" type="curve" smooth="yes"/>
      <point x="467" y="258" type="line"/>
      <point x="467" y="145" type="line"/>
      <point x="251" y="145" type="line"/>
      <point x="251" y="572" type="line"/>
      <point x="484" y="572" type="line" smooth="yes"/>
      <point x="572" y="572"/>
      <point x="659" y="557"/>
      <point x="719" y="531" type="curve"/>
    </contour>
    <contour>
      <point x="506" y="369" type="curve"/>
      <point x="506" y="460" type="line"/>
      <point x="499" y="463"/>
      <point x="493" y="464"/>
      <point x="485" y="464" type="curve" smooth="yes"/>
      <point x="464" y="464" type="line"/>
      <point x="464" y="367" type="line"/>
      <point x="485" y="367" type="line" smooth="yes"/>
      <point x="493" y="367"/>
      <point x="499" y="367"/>
    </contour>
  </outline>
</glyph>
<glyph name="trademark" format="1">
  <advance width="1165"/>
  <unicode hex="2122"/>
  <outline>
    <contour>
      <point x="1140" y="293" type="line"/>
      <point x="934" y="293" type="line"/>
      <point x="934" y="604" type="line"/>
      <point x="926" y="605"/>
      <point x="914" y="606"/>
      <point x="898" y="607" type="curve"/>
      <point x="898" y="293" type="line"/>
      <point x="691" y="293" type="line"/>
      <point x="691" y="607" type="line"/>
      <point x="674" y="606"/>
      <point x="662" y="605"/>
      <point x="654" y="604" type="curve"/>
      <point x="654" y="293" type="line"/>
      <point x="448" y="293" type="line"/>
      <point x="448" y="692" type="line"/>
      <point x="543" y="717"/>
      <point x="660" y="728"/>
      <point x="794" y="728" type="curve" smooth="yes"/>
      <point x="929" y="728"/>
      <point x="1046" y="718"/>
      <point x="1140" y="692" type="curve"/>
    </contour>
    <contour>
      <point x="412" y="581" type="line"/>
      <point x="318" y="581" type="line"/>
      <point x="318" y="293" type="line"/>
      <point x="102" y="293" type="line"/>
      <point x="102" y="581" type="line"/>
      <point x="8" y="581" type="line"/>
      <point x="8" y="720" type="line"/>
      <point x="412" y="720" type="line"/>
    </contour>
  </outline>
</glyph>
<glyph name="radical" format="1">
  <advance width="850"/>
  <unicode hex="221A"/>
  <outline>
    <contour>
      <point x="845" y="720" type="line"/>
      <point x="567" y="0" type="line"/>
      <point x="189" y="0" type="line"/>
      <point x="5" y="411" type="line"/>
      <point x="319" y="411" type="line"/>
      <point x="366" y="253" type="line"/>
      <point x="499" y="720" type="line"/>
    </contour>
  </outline>
</glyph>
<glyph name="apple" format="1">
  <advance width="752"/>
  <unicode hex="F8FF"/>
  <outline>
    <contour>
      <point x="727" y="481" type="line"/>
      <point x="405" y="481" type="line"/>
      <point x="405" y="542" type="line"/>
      <point x="394" y="545"/>
      <point x="386" y="545"/>
      <point x="375" y="545" type="curve" smooth="yes"/>
      <point x="364" y="545"/>
      <point x="356" y="545"/>
      <point x="345" y="542" type="curve"/>
      <point x="345" y="481" type="line"/>
      <point x="22" y="481" type="line"/>
      <point x="22" y="674" type="line"/>
      <point x="115" y="714"/>
      <point x="249" y="735"/>
      <point x="376" y="735" type="curve" smooth="yes"/>
      <point x="502" y="735"/>
      <point x="633" y="715"/>
      <point x="727" y="674" type="curve"/>
    </contour>
    <contour>
      <point x="702" y="264" type="line"/>
      <point x="405" y="264" type="line"/>
      <point x="405" y="264" type="line"/>
      <point x="345" y="264" type="line"/>
      <point x="345" y="264" type="line"/>
      <point x="47" y="264" type="line"/>
      <point x="47" y="456" type="line"/>
      <point x="345" y="456" type="line"/>
      <point x="345" y="456" type="line"/>
      <point x="405" y="456" type="line"/>
      <point x="405" y="456" type="line"/>
      <point x="702" y="456" type="line"/>
    </contour>
    <contour>
      <point x="727" y="46" type="line"/>
      <point x="633" y="5"/>
      <point x="502" y="-15"/>
      <point x="376" y="-15" type="curve" smooth="yes"/>
      <point x="249" y="-15"/>
      <point x="115" y="6"/>
      <point x="22" y="46" type="curve"/>
      <point x="22" y="239" type="line"/>
      <point x="345" y="239" type="line"/>
      <point x="345" y="178" type="line"/>
      <point x="356" y="175"/>
      <point x="364" y="175"/>
      <point x="375" y="175" type="curve" smooth="yes"/>
      <point x="386" y="175"/>
      <point x="394" y="175"/>
      <point x="405" y="178" type="curve"/>
      <point x="405" y="239" type="line"/>
      <point x="727" y="239" type="line"/>
    </contour>
  </outline>
</glyph>
<glyph name="fl" format="1">
  <advance width="758"/>
  <unicode hex="FB02"/>
  <outline>
    <contour>
      <point x="738" y="0" type="line"/>
      <point x="446" y="0" type="line"/>
      <point x="446" y="720" type="line"/>
      <point x="738" y="720" type="line"/>
    </contour>
    <contour>
      <point x="425" y="549" type="line"/>
      <point x="383" y="549" type="line" smooth="yes"/>
      <point x="366" y="549"/>
      <point x="350" y="549"/>
      <point x="337" y="546" type="curve"/>
      <point x="337" y="480" type="line"/>
      <point x="417" y="480" type="line"/>
      <point x="417" y="299" type="line"/>
      <point x="337" y="299" type="line"/>
      <point x="337" y="0" type="line"/>
      <point x="45" y="0" type="line"/>
      <point x="45" y="299" type="line"/>
      <point x="10" y="299" type="line"/>
      <point x="10" y="480" type="line"/>
      <point x="45" y="480" type="line"/>
      <point x="45" y="682" type="line"/>
      <point x="129" y="710"/>
      <point x="214" y="722"/>
      <point x="317" y="722" type="curve" smooth="yes"/>
      <point x="425" y="722" type="line"/>
    </contour>
  </outline>
</glyph>
<glyph name="registered" format="1">
  <advance width="965"/>
  <outline>
    <contour>
      <point x="937" y="50" type="line"/>
      <point x="823" y="6"/>
      <point x="653" y="-15"/>
      <point x="483" y="-15" type="curve" smooth="yes"/>
      <point x="311" y="-15"/>
      <point x="139" y="6"/>
      <point x="25" y="50" type="curve"/>
      <point x="25" y="670" type="line"/>
      <point x="139" y="714"/>
      <point x="311" y="735"/>
      <point x="483" y="735" type="curve" smooth="yes"/>
      <point x="653" y="735"/>
      <point x="823" y="714"/>
      <point x="937" y="670" type="curve"/>
    </contour>
    <contour>
      <point x="776" y="129" type="curve"/>
      <point x="776" y="591" type="line"/>
      <point x="673" y="615"/>
      <point x="575" y="624"/>
      <point x="482" y="624" type="curve" smooth="yes"/>
      <point x="390" y="624"/>
      <point x="293" y="615"/>
      <point x="188" y="592" type="curve"/>
      <point x="188" y="128" type="line"/>
      <point x="293" y="105"/>
      <point x="390" y="96"/>
      <point x="482" y="96" type="curve" smooth="yes"/>
      <point x="575" y="96"/>
      <point x="673" y="105"/>
    </contour>
    <contour>
      <point x="716" y="147" type="line"/>
      <point x="500" y="147" type="line"/>
      <point x="500" y="284" type="line"/>
      <point x="492" y="287"/>
      <point x="488" y="288"/>
      <point x="479" y="288" type="curve" smooth="yes"/>
      <point x="464" y="288" type="line"/>
      <point x="464" y="147" type="line"/>
      <point x="248" y="147" type="line"/>
      <point x="248" y="574" type="line"/>
      <point x="481" y="574" type="line" smooth="yes"/>
      <point x="568" y="574"/>
      <point x="655" y="561"/>
      <point x="715" y="536" type="curve"/>
      <point x="715" y="366" type="line"/>
      <point x="693" y="358"/>
      <point x="663" y="352"/>
      <point x="624" y="347" type="curve"/>
      <point x="662" y="342"/>
      <point x="694" y="336"/>
      <point x="716" y="328" type="curve"/>
    </contour>
    <contour>
      <point x="502" y="392" type="curve"/>
      <point x="502" y="473" type="line"/>
      <point x="495" y="476"/>
      <point x="490" y="476"/>
      <point x="482" y="476" type="curve" smooth="yes"/>
      <point x="461" y="476" type="line"/>
      <point x="461" y="388" type="line"/>
      <point x="482" y="388" type="line" smooth="yes"/>
      <point x="490" y="388"/>
      <point x="496" y="389"/>
    </contour>
  </outline>
</glyph>
